<svg id="rejected-2" xmlns="http://www.w3.org/2000/svg" width="47.458" height="47.458" viewBox="0 0 47.458 47.458">
  <g id="Group_1196" data-name="Group 1196" transform="translate(21.752 21.752)">
    <path id="Path_5373" data-name="Path 5373" d="M23.853,36.706A12.853,12.853,0,1,1,36.706,23.853,12.868,12.868,0,0,1,23.853,36.706Zm0-23.729A10.876,10.876,0,1,0,34.729,23.853,10.889,10.889,0,0,0,23.853,12.977Z" transform="translate(-11 -11)" fill="#ee4d9b"/>
  </g>
  <g id="Group_1198" data-name="Group 1198" transform="translate(5.932 27.684)">
    <path id="Path_5375" data-name="Path 5375" d="M15.853,15.977H3.989a.989.989,0,0,1,0-1.977H15.853a.989.989,0,0,1,0,1.977Z" transform="translate(-3 -14)" fill="#009edb"/>
  </g>
  <g id="Group_1199" data-name="Group 1199" transform="translate(5.932 33.616)">
    <path id="Path_5376" data-name="Path 5376" d="M13.876,18.977H3.989a.989.989,0,0,1,0-1.977h9.887a.989.989,0,1,1,0,1.977Z" transform="translate(-3 -17)" fill="#009edb"/>
  </g>
  <g id="Group_1200" data-name="Group 1200" transform="translate(12.853 5.932)">
    <path id="Path_5377" data-name="Path 5377" d="M10.455,10.91A3.955,3.955,0,1,1,14.41,6.955,3.959,3.959,0,0,1,10.455,10.91Zm0-5.932a1.977,1.977,0,1,0,1.977,1.977A1.979,1.979,0,0,0,10.455,4.977Z" transform="translate(-6.5 -3)" fill="#009edb"/>
  </g>
  <g id="Group_1201" data-name="Group 1201" transform="translate(8.898 15.819)">
    <path id="Path_5378" data-name="Path 5378" d="M19.331,15.91a.989.989,0,0,1-.989-.989V12.944a2.97,2.97,0,0,0-2.966-2.966H9.444a2.97,2.97,0,0,0-2.966,2.966v1.977a.989.989,0,1,1-1.977,0V12.944A4.949,4.949,0,0,1,9.444,8h5.932a4.949,4.949,0,0,1,4.944,4.944v1.977A.989.989,0,0,1,19.331,15.91Z" transform="translate(-4.5 -8)" fill="#009edb"/>
  </g>
  <g id="Group_1202" data-name="Group 1202">
    <path id="Path_5379" data-name="Path 5379" d="M18.785,41.526H4.944A4.949,4.949,0,0,1,0,36.582V4.944A4.949,4.949,0,0,1,4.944,0H28.673a4.949,4.949,0,0,1,4.944,4.944V16.927a.989.989,0,1,1-1.977,0V4.944a2.97,2.97,0,0,0-2.966-2.966H4.944A2.97,2.97,0,0,0,1.977,4.944V36.582a2.97,2.97,0,0,0,2.966,2.966H18.785a.989.989,0,0,1,0,1.977Z" fill="#009edb"/>
  </g>
  <path id="Path_5380" data-name="Path 5380" d="M27.49,34.135l4.955,4.955L40.733,30.8" transform="translate(0.458)" fill="none" stroke="#ee4d9b" stroke-linecap="round" stroke-width="1.5"/>
</svg>
