<svg xmlns="http://www.w3.org/2000/svg" width="36.078" height="30.02" viewBox="0 0 36.078 30.02">
  <g id="signal" transform="translate(0 -42.65)">
    <g id="Group_2" data-name="Group 2" transform="translate(0 42.65)">
      <g id="Group_1" data-name="Group 1" transform="translate(0 0)">
        <path id="Path_1" data-name="Path 1" d="M31.291,48.7H29.253V44.653h5.824a1,1,0,1,0,0-2H1a.99.99,0,0,0-1,.994,1,1,0,0,0,1,1H6.825v4.048H4.787A4.8,4.8,0,0,0,0,53.487v14.4A4.789,4.789,0,0,0,4.787,72.67h26.5a4.789,4.789,0,0,0,4.787-4.787v-14.4A4.789,4.789,0,0,0,31.291,48.7ZM8.828,44.646H27.243v4.048H8.828ZM34.075,67.883h0a2.788,2.788,0,0,1-2.784,2.784H4.787A2.788,2.788,0,0,1,2,67.883v-14.4A2.788,2.788,0,0,1,4.787,50.7h26.5a2.788,2.788,0,0,1,2.784,2.784Z" transform="translate(0 -42.65)" fill="#2240aa"/>
      </g>
    </g>
    <g id="Group_4" data-name="Group 4" transform="translate(29.409 58.471)">
      <g id="Group_3" data-name="Group 3">
        <path id="Path_2" data-name="Path 2" d="M415.762,324.137a.376.376,0,0,0,0-.753h-.9v-.866h.9V322.5a.376.376,0,0,0,0-.753h-1.285a.379.379,0,0,0-.376.376v3.253a.379.379,0,0,0,.376.376h1.285a.376.376,0,0,0,0-.753h-.9v-.866Z" transform="translate(-414.1 -321.751)" fill="#2240aa"/>
      </g>
    </g>
    <g id="Group_6" data-name="Group 6" transform="translate(4.447 58.471)">
      <g id="Group_5" data-name="Group 5">
        <path id="Path_3" data-name="Path 3" d="M65.849,325.238l-1.257-3.246a.377.377,0,0,0-.355-.241.387.387,0,0,0-.355.241l-1.243,3.246a.363.363,0,0,0,.22.49.387.387,0,0,0,.49-.22l.284-.732h1.222l.284.732a.38.38,0,1,0,.71-.27Zm-1.932-1.222.32-.838.32.838Z" transform="translate(-62.612 -321.751)" fill="#2240aa"/>
      </g>
    </g>
    <g id="Group_8" data-name="Group 8" transform="translate(11.066 58.471)">
      <g id="Group_7" data-name="Group 7">
        <path id="Path_4" data-name="Path 4" d="M159.049,325.245l-1.25-3.253a.377.377,0,0,0-.355-.241.387.387,0,0,0-.355.241l-1.25,3.253a.363.363,0,0,0,.22.49.387.387,0,0,0,.49-.22l.284-.732h1.222l.284.732a.38.38,0,0,0,.71-.27Zm-1.925-1.229.32-.838.32.838Z" transform="translate(-155.812 -321.751)" fill="#2240aa"/>
      </g>
    </g>
    <g id="Group_10" data-name="Group 10" transform="translate(19.041 58.471)">
      <g id="Group_9" data-name="Group 9">
        <path id="Path_5" data-name="Path 5" d="M271.349,325.245l-1.25-3.253a.377.377,0,0,0-.355-.241.387.387,0,0,0-.355.241l-1.25,3.253a.363.363,0,0,0,.22.49.387.387,0,0,0,.49-.22l.284-.732h1.222l.284.732a.38.38,0,0,0,.71-.27Zm-1.925-1.229.32-.838.32.838Z" transform="translate(-268.112 -321.751)" fill="#2240aa"/>
      </g>
    </g>
    <g id="Group_22" data-name="Group 22" transform="translate(14.964 58.464)">
      <g id="Group_21" data-name="Group 21" transform="translate(0 0)">
        <path id="Path_11" data-name="Path 11" d="M211.076,321.651a.379.379,0,0,0-.376.376v3.253a.376.376,0,1,0,.753,0v-3.253A.379.379,0,0,0,211.076,321.651Z" transform="translate(-210.7 -321.651)" fill="#2240aa"/>
      </g>
    </g>
    <g id="Group_24" data-name="Group 24" transform="translate(23.145 58.464)">
      <g id="Group_23" data-name="Group 23" transform="translate(0 0)">
        <path id="Path_12" data-name="Path 12" d="M328.322,322.83a1.2,1.2,0,0,0-1.193-1.179h-.852a.379.379,0,0,0-.376.376v3.253a.379.379,0,0,0,.376.376h.852a57.889,57.889,0,0,0,1.193-2.827Zm-1.193,2.074h-.476v-.866h.476a.43.43,0,0,1,.433.433A.435.435,0,0,1,327.129,324.9Zm0-1.626h-.476v-.866h.476a.43.43,0,0,1,.433.433A.44.44,0,0,1,327.129,323.277Z" transform="translate(-325.9 -321.651)" fill="#2240aa"/>
      </g>
    </g>
    <g id="Group_26" data-name="Group 26" transform="translate(7.832 58.47)">
      <g id="Group_25" data-name="Group 25" transform="translate(0 0)">
        <path id="Path_13" data-name="Path 13" d="M113.156,321.752a.374.374,0,0,0-.483.227l-.831,2.28-.831-2.28a.377.377,0,1,0-.71.256l1.186,3.253a.378.378,0,0,0,.71,0l1.186-3.253A.38.38,0,0,0,113.156,321.752Z" transform="translate(-110.278 -321.729)" fill="#2240aa"/>
      </g>
    </g>
    <g id="Group_28" data-name="Group 28" transform="translate(16.37 58.471)">
      <g id="Group_27" data-name="Group 27">
        <path id="Path_14" data-name="Path 14" d="M232.155,325h-.9v-2.869a.376.376,0,1,0-.753,0v3.253a.379.379,0,0,0,.376.376h1.285a.38.38,0,1,0-.007-.76Z" transform="translate(-230.5 -321.751)" fill="#2240aa"/>
      </g>
    </g>
    <g id="Group_30" data-name="Group 30" transform="translate(26.469 58.471)">
      <g id="Group_29" data-name="Group 29">
        <path id="Path_15" data-name="Path 15" d="M374.355,325h-.9v-2.869a.376.376,0,0,0-.753,0v3.253a.379.379,0,0,0,.376.376h1.278a.379.379,0,0,0,.376-.376A.372.372,0,0,0,374.355,325Z" transform="translate(-372.7 -321.751)" fill="#2240aa"/>
      </g>
    </g>
  </g>
</svg>
