<svg xmlns="http://www.w3.org/2000/svg" width="37.001" height="37" viewBox="0 0 37.001 37">
  <g id="butter" transform="translate(-0.999 -1)">
    <path id="Path_85" data-name="Path 85" d="M34.226,58.774H5.581A3.58,3.58,0,0,1,2,55.194,1.193,1.193,0,0,1,3.194,54H36.613a1.193,1.193,0,0,1,1.194,1.194A3.58,3.58,0,0,1,34.226,58.774Z" transform="translate(-0.404 -21.371)" fill="#e39854"/>
    <path id="Path_86" data-name="Path 86" d="M2.345,58h35.4a3.582,3.582,0,0,1-3.377,2.386H5.719A3.582,3.582,0,0,1,2.342,58Z" transform="translate(-0.542 -22.984)" fill="#c16b3f"/>
    <path id="Path_87" data-name="Path 87" d="M29.468,28h5.371a2.387,2.387,0,0,1,2.387,2.387V43.516H5V30.387A2.387,2.387,0,0,1,7.387,28h.554a2.986,2.986,0,0,1,2.11.874l.247.247a4.321,4.321,0,0,0,6.112,0l.247-.247A2.984,2.984,0,0,1,18.768,28h3.538" transform="translate(-1.613 -10.887)" fill="#f7d881"/>
    <path id="Path_88" data-name="Path 88" d="M26.532,11.548,17.581,2.6A2.038,2.038,0,0,0,16.14,2h-.1A2.038,2.038,0,0,0,14,4.037v.1a2.038,2.038,0,0,0,.6,1.441l8.952,8.952" transform="translate(-5.242 -0.403)" fill="#976947"/>
    <path id="Path_89" data-name="Path 89" d="M25.637,13.25,16.984,4.6A2.038,2.038,0,0,0,15.543,4h-.1a2.038,2.038,0,0,0-1.414.575A2.14,2.14,0,0,0,14,4.844v.1a2.038,2.038,0,0,0,.6,1.441l8.952,8.952Z" transform="translate(-5.242 -1.21)" fill="#c18e59"/>
    <path id="Path_90" data-name="Path 90" d="M34,18.422l9.9,9.9a1.441,1.441,0,0,1,0,2.037L42.357,31.9a1.441,1.441,0,0,1-2.037,0l-9.9-9.9a1.441,1.441,0,0,1,0-2.037l1.543-1.543a1.441,1.441,0,0,1,2.037,0Z" transform="translate(-11.694 -6.855)" fill="#e7e4dd"/>
    <path id="Path_91" data-name="Path 91" d="M43.371,37.371,38,32h2.315a3.056,3.056,0,0,1,3.056,3.056Z" transform="translate(-14.92 -12.5)" fill="#f2c351"/>
    <g id="Group_20" data-name="Group 20" transform="translate(5.948 26.66)">
      <path id="Path_92" data-name="Path 92" d="M15.98,46.982a2.741,2.741,0,0,1-1.951-.807l-.524-.524a1.6,1.6,0,0,0-2.212,0l-1.157,1.157-.844-.844,1.157-1.157a2.759,2.759,0,0,1,3.9,0l.524.524a1.6,1.6,0,0,0,2.212,0l1.157-1.157.844.844-1.157,1.157A2.74,2.74,0,0,1,15.98,46.982Z" transform="translate(-9.292 -43.998)" fill="#f2c351"/>
    </g>
    <g id="Group_21" data-name="Group 21" transform="translate(11.916 21.289)">
      <path id="Path_93" data-name="Path 93" d="M25.98,37.982a2.741,2.741,0,0,1-1.951-.807l-.524-.524a1.6,1.6,0,0,0-2.212,0l-1.157,1.157-.844-.844,1.157-1.157a2.759,2.759,0,0,1,3.9,0l.524.524a1.6,1.6,0,0,0,2.212,0l1.157-1.157.844.844-1.157,1.157A2.74,2.74,0,0,1,25.98,37.982Z" transform="translate(-19.292 -34.998)" fill="#f2c351"/>
    </g>
    <g id="Group_22" data-name="Group 22" transform="translate(23.255 26.66)">
      <path id="Path_94" data-name="Path 94" d="M44.98,46.982a2.741,2.741,0,0,1-1.951-.807l-.524-.524a1.6,1.6,0,0,0-2.212,0l-1.157,1.157-.844-.844,1.157-1.157a2.759,2.759,0,0,1,3.9,0l.524.524a1.6,1.6,0,0,0,2.212,0l1.157-1.157.844.844-1.157,1.157A2.74,2.74,0,0,1,44.98,46.982Z" transform="translate(-38.292 -43.998)" fill="#f2c351"/>
    </g>
    <g id="Group_23" data-name="Group 23" transform="translate(0.999 1)">
      <path id="Path_95" data-name="Path 95" d="M36.209,32.031V19.5a2.987,2.987,0,0,0-2.983-2.984H28.1l-5.371-5.371a1.989,1.989,0,0,0-1.148-.55L12.76,1.771A2.615,2.615,0,0,0,10.9,1h-.1A2.633,2.633,0,0,0,8.16,3.634v.1A2.619,2.619,0,0,0,8.931,5.6l8.8,8.8a2.016,2.016,0,0,0,.57,1.167l.946.946h-2.1a3.556,3.556,0,0,0-2.532,1.049l-.247.247A3.7,3.7,0,0,1,11.741,18.9a3.751,3.751,0,0,1-2.634-1.091l-.247-.247a3.557,3.557,0,0,0-2.532-1.049H5.773A2.987,2.987,0,0,0,2.789,19.5V32.032h0A1.793,1.793,0,0,0,1,33.822,4.183,4.183,0,0,0,5.176,38H33.822A4.184,4.184,0,0,0,38,33.822a1.793,1.793,0,0,0-1.79-1.791ZM9.354,3.736v-.1A1.441,1.441,0,0,1,10.8,2.194h.1a1.429,1.429,0,0,1,1.018.422l8.267,8.267a1.85,1.85,0,0,0-.334.263l-1.543,1.543a2.064,2.064,0,0,0-.266.331L9.776,4.755a1.432,1.432,0,0,1-.422-1.019ZM18.9,14.129a.836.836,0,0,1,.248-.6l1.543-1.543a.834.834,0,0,1,.6-.248.848.848,0,0,1,.6.248l9.9,9.9a.844.844,0,0,1,0,1.194l-1.543,1.543a.863.863,0,0,1-1.194,0h0V22.557A3.652,3.652,0,0,0,25.395,18.9H23.327L19.15,14.726a.839.839,0,0,1-.248-.6Zm8.951,9.3L24.521,20.1h.874a2.459,2.459,0,0,1,2.459,2.46ZM3.983,19.5a1.793,1.793,0,0,1,1.79-1.79h.555a2.369,2.369,0,0,1,1.687.7l.247.247a4.919,4.919,0,0,0,6.957,0l.247-.248a2.374,2.374,0,0,1,1.688-.7h3.291L28.2,25.468a2.04,2.04,0,0,0,2.882,0l1.543-1.543a2.04,2.04,0,0,0,0-2.882L29.3,17.71h3.93a1.792,1.792,0,0,1,1.789,1.79V32.032H3.983V19.5ZM33.822,36.806H5.176A2.97,2.97,0,0,1,2.8,35.612H36.194a2.972,2.972,0,0,1-2.372,1.194Zm2.924-2.388H2.253a2.981,2.981,0,0,1-.06-.6.6.6,0,0,1,.6-.6H36.209a.6.6,0,0,1,.6.6A2.977,2.977,0,0,1,36.746,34.418Z" transform="translate(-0.999 -1)"/>
      <path id="Path_96" data-name="Path 96" d="M17.086,45.33a1.6,1.6,0,0,1-2.212,0l-.524-.524a2.759,2.759,0,0,0-3.9,0L9.292,45.963l.844.844,1.157-1.157a1.6,1.6,0,0,1,2.212,0l.524.524a2.76,2.76,0,0,0,3.9,0l1.157-1.157-.844-.844Z" transform="translate(-4.343 -18.338)"/>
      <path id="Path_97" data-name="Path 97" d="M27.086,36.33a1.6,1.6,0,0,1-2.212,0l-.524-.524a2.759,2.759,0,0,0-3.9,0l-1.157,1.157.844.844,1.157-1.157a1.6,1.6,0,0,1,2.212,0l.524.524a2.76,2.76,0,0,0,3.9,0l1.157-1.157-.844-.844Z" transform="translate(-8.375 -14.709)"/>
      <path id="Path_98" data-name="Path 98" d="M46.086,45.33a1.6,1.6,0,0,1-2.212,0l-.524-.524a2.759,2.759,0,0,0-3.9,0l-1.157,1.157.844.844,1.157-1.157a1.6,1.6,0,0,1,2.212,0l.524.524a2.76,2.76,0,0,0,3.9,0l1.157-1.157-.844-.844Z" transform="translate(-16.037 -18.338)"/>
    </g>
  </g>
</svg>
