<svg xmlns="http://www.w3.org/2000/svg" width="40.586" height="37.308" viewBox="0 0 40.586 37.308">
  <g id="food-and-restaurant" transform="translate(0 -20.676)">
    <g id="Group_10" data-name="Group 10" transform="translate(0.595 21.269)">
      <g id="Group_4" data-name="Group 4" transform="translate(0 0)">
        <path id="Path_15" data-name="Path 15" d="M72.994,153.654a5.456,5.456,0,0,1,2.447-9.711l1.853-1.805q.112-.109.229-.21a12.9,12.9,0,0,0-15.61,9.371,7.887,7.887,0,0,0-7.377,7.87H86.408a12.923,12.923,0,0,0-2.89-13.856,5.152,5.152,0,0,1-.5,1.227L81.751,148.8a5.456,5.456,0,0,1-8.757,4.858Z" transform="translate(-50.807 -132.562)" fill="#fdd8a8" fill-rule="evenodd"/>
        <path id="Path_16" data-name="Path 16" d="M248.842,154.9a5.456,5.456,0,0,1,2.447-9.711l1.853-1.805q.112-.109.229-.21a12.881,12.881,0,0,0-1.439-.271l-1.218,1.186a6.646,6.646,0,1,0,8.1,6.226l1.095-1.946a6.364,6.364,0,0,0,.377-.794,12.844,12.844,0,0,0-.915-1.016,5.152,5.152,0,0,1-.5,1.227l-1.269,2.255a5.456,5.456,0,0,1-8.757,4.858Z" transform="translate(-226.656 -133.81)" fill="#ffc477" fill-rule="evenodd"/>
        <path id="Path_17" data-name="Path 17" d="M71.6,169.313a6.885,6.885,0,0,0,2.749,8.274,7.845,7.845,0,0,1,2.857-.737,12.805,12.805,0,0,1,1.292-3.222A6.88,6.88,0,0,0,71.6,169.313Z" transform="translate(-66.105 -158.112)" fill="#b3e2a1" fill-rule="evenodd"/>
        <path id="Path_18" data-name="Path 18" d="M272.005,132.63c-1.61-1.238-3.688-.679-5.064.661l-1.853,1.805a5.457,5.457,0,1,0,6.309,4.852l1.269-2.255C273.609,136.019,273.616,133.868,272.005,132.63Z" transform="translate(-240.455 -123.715)" fill="#fdd8a8" fill-rule="evenodd"/>
        <path id="Path_19" data-name="Path 19" d="M396.391,93.545l-1.885-1.45-2.533,3.293a3.379,3.379,0,0,1,1.885,1.45Z" transform="translate(-361.496 -87.027)" fill="#bfbec1" fill-rule="evenodd"/>
        <path id="Path_20" data-name="Path 20" d="M429.524,30.705a1.784,1.784,0,0,0-2.5.327,1.784,1.784,0,1,0-2.5.327l.471.362-1.16,1.508,1.885,1.45,1.16-1.508.471.362a1.784,1.784,0,0,0,2.175-2.828Z" transform="translate(-390.824 -28.161)" fill="#6b809b" fill-rule="evenodd"/>
        <path id="Path_21" data-name="Path 21" d="M8.689,363.83A1.193,1.193,0,0,0,7.5,365.019v1.189A1.193,1.193,0,0,0,8.689,367.4H45.708a1.193,1.193,0,0,0,1.189-1.189v-1.189a1.193,1.193,0,0,0-1.189-1.189Z" transform="translate(-7.5 -337.222)" fill="#bfbec1" fill-rule="evenodd"/>
        <path id="Path_22" data-name="Path 22" d="M72.14,408.83H37.5l1.189,2.973c.607,1.518,1.338,2.973,2.973,2.973H67.979c1.635,0,2.365-1.455,2.973-2.973Z" transform="translate(-35.122 -378.655)" fill="#bfbec1" fill-rule="evenodd"/>
        <path id="Path_23" data-name="Path 23" d="M38.856,408.83H37.5l1.189,2.973c.607,1.518,1.338,2.973,2.973,2.973h1.784c-1.635,0-2.365-1.455-2.973-2.973l-.713-1.784H71.665l.476-1.189Z" transform="translate(-35.122 -378.655)" fill="#9c9c9f" fill-rule="evenodd"/>
        <path id="Path_24" data-name="Path 24" d="M8.689,363.83A1.193,1.193,0,0,0,7.5,365.019v1.189A1.193,1.193,0,0,0,8.689,367.4h1.782a1.193,1.193,0,0,1-1.187-1.189v-1.189a1.193,1.193,0,0,1,1.189-1.189Z" transform="translate(-7.5 -337.222)" fill="#9c9c9f" fill-rule="evenodd"/>
        <path id="Path_25" data-name="Path 25" d="M75.364,141.584A12.9,12.9,0,0,0,61.912,151.3a7.887,7.887,0,0,0-7.377,7.87h1.784c0-3.5,2.147-5.6,5.31-6.363-.045.575-.088.984-.1,1.475v2.535h2.258C62.954,147.525,69.785,142.046,75.364,141.584Z" transform="translate(-50.807 -132.562)" fill="#ffc477" fill-rule="evenodd"/>
        <path id="Path_26" data-name="Path 26" d="M74.354,177.731a7.844,7.844,0,0,1,2.8-.733l.054,0L71.6,169.457A6.885,6.885,0,0,0,74.354,177.731Z" transform="translate(-66.105 -158.257)" fill="#9fdd83" fill-rule="evenodd"/>
        <path id="Path_27" data-name="Path 27" d="M120.8,100.32a12.841,12.841,0,0,1,2.259-2.908,6.869,6.869,0,0,0-1.8-7.728,6.884,6.884,0,0,0-4.148,6.854A6.882,6.882,0,0,1,120.8,100.32Z" transform="translate(-108.4 -84.808)" fill="#b3e2a1" fill-rule="evenodd"/>
        <path id="Path_28" data-name="Path 28" d="M121.233,89.685a6.886,6.886,0,0,0-4.147,6.862,6.74,6.74,0,0,1,2.7,2.059Z" transform="translate(-108.382 -84.808)" fill="#9fdd83" fill-rule="evenodd"/>
        <path id="Path_29" data-name="Path 29" d="M272.005,132.63c-1.61-1.238-3.688-.679-5.064.661l-1.853,1.805a5.458,5.458,0,0,0-1.2,10.433,5.457,5.457,0,0,1,2.98-9.244l1.853-1.805a4.2,4.2,0,0,1,3.893-1.242A3.372,3.372,0,0,0,272.005,132.63Z" transform="translate(-240.455 -123.715)" fill="#ffc477" fill-rule="evenodd"/>
        <path id="Path_30" data-name="Path 30" d="M396.391,93.545l-1.885-1.45-2.533,3.293a3.335,3.335,0,0,1,1.074.554l2.4-3.122Z" transform="translate(-361.496 -87.027)" fill="#9c9c9f" fill-rule="evenodd"/>
        <path id="Path_31" data-name="Path 31" d="M429.524,30.705a1.784,1.784,0,0,0-2.5.327,1.784,1.784,0,1,0-2.5.327l.471.362-1.16,1.508,1.885,1.45,1.16-1.508.471.362a1.784,1.784,0,0,0,2.175-2.828Z" transform="translate(-390.824 -28.161)" fill="#bfbec1" fill-rule="evenodd"/>
        <path id="Path_32" data-name="Path 32" d="M427.023,31.032a1.784,1.784,0,1,0-2.5.327l.471.362-1.16,1.508.943.725Z" transform="translate(-390.824 -28.161)" fill="#9c9c9f" fill-rule="evenodd"/>
      </g>
      <g id="Group_5" data-name="Group 5" transform="translate(7.151 13.7)">
        <path id="Path_33" data-name="Path 33" d="M0,0H1.189V1.189H0Z" transform="translate(0 0.71) rotate(-36.664)" fill="#fff"/>
      </g>
      <g id="Group_6" data-name="Group 6" transform="translate(11.501 8.302)">
        <path id="Path_34" data-name="Path 34" d="M0,0H1.189V1.189H0Z" transform="matrix(0.16, -0.987, 0.987, 0.16, 0, 1.174)" fill="#fff"/>
      </g>
      <g id="Group_7" data-name="Group 7" transform="translate(32.882 17.937)">
        <path id="Path_35" data-name="Path 35" d="M423.873,260.872l-1.159-.265a9.951,9.951,0,0,0,.157-3.569l1.178-.16A11.139,11.139,0,0,1,423.873,260.872Zm-1.216-4.935a9.8,9.8,0,0,0-.336-1.068l1.112-.422a11.025,11.025,0,0,1,.377,1.2Z" transform="translate(-422.321 -254.447)" fill="#fff"/>
      </g>
      <g id="Group_8" data-name="Group 8" transform="translate(23.274 16.572)">
        <path id="Path_36" data-name="Path 36" d="M303.305,241.1a3.572,3.572,0,0,1-2.2-.771l.725-.943a2.479,2.479,0,0,0,3.381-.335l.887.791A3.8,3.8,0,0,1,303.305,241.1Zm3.51-2.476-1.123-.391a2.445,2.445,0,0,0,.13-.944l1.187-.066A3.629,3.629,0,0,1,306.816,238.627Z" transform="translate(-301.103 -237.226)" fill="#fff"/>
      </g>
      <g id="Group_9" data-name="Group 9" transform="translate(27.718 31.959)">
        <path id="Path_37" data-name="Path 37" d="M363.112,432.519h-3.567V431.33h3.567Zm-4.756,0h-1.189V431.33h1.189Z" transform="translate(-357.167 -431.33)" fill="#fff"/>
      </g>
      <path id="Path_38" data-name="Path 38" d="M423.828,408.83h0Z" transform="translate(-390.826 -378.655)" fill="blue" fill-rule="evenodd"/>
    </g>
    <g id="Group_11" data-name="Group 11" transform="translate(0 20.676)">
      <path id="Path_39" data-name="Path 39" d="M166.553,356.33H139.659v1.189h26.894a.6.6,0,0,1,.595.595V359.3a.6.6,0,0,1-.595.595H148.638v1.189h15.848l-.863,2.157c-.658,1.646-1.266,2.6-2.421,2.6H138.749v1.189H161.2c2.186,0,3.024-2.095,3.525-3.346l1.04-2.6h.786a1.786,1.786,0,0,0,1.784-1.784v-1.189A1.785,1.785,0,0,0,166.553,356.33Z" transform="translate(-127.751 -329.723)"/>
      <path id="Path_40" data-name="Path 40" d="M4.714,363.243l-.863-2.157H19.7V359.9H1.784a.6.6,0,0,1-.595-.595v-1.189a.6.6,0,0,1,.595-.595H10.72V356.33H1.784A1.786,1.786,0,0,0,0,358.114V359.3a1.786,1.786,0,0,0,1.784,1.784H2.57l1.04,2.6c.5,1.252,1.338,3.346,3.525,3.346H9.81v-1.189H7.134c-1.155,0-1.762-.953-2.421-2.6Z" transform="translate(0 -329.723)"/>
      <path id="Path_41" data-name="Path 41" d="M436.927,219.275A13.565,13.565,0,0,0,434.9,209.01l-.985.666a12.369,12.369,0,0,1,1.85,9.36Z" transform="translate(-399.517 -194.081)"/>
      <path id="Path_42" data-name="Path 42" d="M50.39,101.14l1.152.3a7.265,7.265,0,0,1,5.8-5.363,13.563,13.563,0,0,0-.223,2.45H58.3A12.283,12.283,0,0,1,70.6,86.23V85.04a13.47,13.47,0,0,0-7.917,2.56,7.368,7.368,0,0,0-2.437-6.515l-.288-.265-.357.16a7.539,7.539,0,0,0-3.624,3.32,7.681,7.681,0,0,0-.883,3.234,7.863,7.863,0,0,0-2.636-.281l-.391.022-.134.368a7.459,7.459,0,0,0,2.2,8.4A8.454,8.454,0,0,0,50.39,101.14Zm9.336-18.9A6.249,6.249,0,0,1,61.143,88.9a13.439,13.439,0,0,0-1.7,2.039c-.127-.214-.267-.426-.421-.635l.457-2.817L58.3,87.3,58,89.168a7.362,7.362,0,0,0-1.728-1.179A6.23,6.23,0,0,1,59.726,82.239Zm-6.8,6.19h.021a6.292,6.292,0,0,1,5.78,3.7,13.454,13.454,0,0,0-.858,1.954l-1.351-1.816-.954.71,1.451,1.951a8.463,8.463,0,0,0-1.718.519,6.278,6.278,0,0,1-2.371-7.014Z" transform="translate(-46.396 -76.053)"/>
      <path id="Path_43" data-name="Path 43" d="M254.269,34.347a6.066,6.066,0,0,0-1.253,3.815l1.189-.026a4.861,4.861,0,0,1,4.077-4.9l.185-.03,1.988-1.936a3.024,3.024,0,1,1,4.792,3.685l-1.361,2.418.018.186a4.862,4.862,0,0,1-9.563,1.625l-1.155.281a6.067,6.067,0,0,0,2.19,3.366,6.005,6.005,0,0,0,3.676,1.255,6.151,6.151,0,0,0,.8-.052,6.051,6.051,0,0,0,5.254-6.4l1.179-2.1a5.29,5.29,0,0,0,.7-3.078,4.048,4.048,0,0,0-.361-1.325l2.237-2.909.858-1.116a2.378,2.378,0,1,0,.995-4.218q0-.075-.015-.149a2.378,2.378,0,1,0-3.808,2.193l-.8,1.037-2.3,2.988a4.048,4.048,0,0,0-1.373-.008,5.291,5.291,0,0,0-2.8,1.465L257.9,32.1A6.026,6.026,0,0,0,254.269,34.347ZM267.4,22.328a1.189,1.189,0,0,1,1.885,1.45l.943.725a1.189,1.189,0,1,1,.218,1.667l-.943-.725-1.16,1.508-.943-.725,1.16-1.508L267.613,24A1.19,1.19,0,0,1,267.4,22.328Zm-.724,4.843.943.725-1.7,2.214a4.092,4.092,0,0,0-.943-.725Z" transform="translate(-232.958 -20.676)"/>
      <path id="Path_44" data-name="Path 44" d="M135.23,319.144h1.189v1.189H135.23Z" transform="translate(-124.51 -295.485)"/>
    </g>
  </g>
</svg>
