<svg xmlns="http://www.w3.org/2000/svg" width="24.625" height="30.32" viewBox="0 0 24.625 30.32">
  <g id="delete" transform="translate(0.003 0.001)">
    <path id="Path_31" data-name="Path 31" d="M223.109,154.7a.71.71,0,0,0-.71.71v13.42a.71.71,0,0,0,1.42,0v-13.42A.71.71,0,0,0,223.109,154.7Zm0,0" transform="translate(-206.61 -143.719)" fill="#2240aa"/>
    <path id="Path_32" data-name="Path 32" d="M105.109,154.7a.71.71,0,0,0-.71.71v13.42a.71.71,0,0,0,1.42,0v-13.42A.71.71,0,0,0,105.109,154.7Zm0,0" transform="translate(-96.988 -143.719)" fill="#2240aa"/>
    <path id="Path_33" data-name="Path 33" d="M2.014,9.025V26.52a3.918,3.918,0,0,0,1.042,2.7,3.5,3.5,0,0,0,2.537,1.1H19.027a3.5,3.5,0,0,0,2.537-1.1,3.918,3.918,0,0,0,1.042-2.7V9.025a2.712,2.712,0,0,0-.7-5.334H18.274V2.8A2.789,2.789,0,0,0,15.462,0H9.157A2.789,2.789,0,0,0,6.345,2.8v.888H2.709a2.712,2.712,0,0,0-.7,5.334ZM19.027,28.9H5.592A2.249,2.249,0,0,1,3.434,26.52V9.088H21.185V26.52A2.249,2.249,0,0,1,19.027,28.9ZM7.765,2.8A1.368,1.368,0,0,1,9.157,1.419h6.305A1.368,1.368,0,0,1,16.854,2.8v.888H7.765ZM2.709,5.111h19.2a1.278,1.278,0,0,1,0,2.556H2.709a1.278,1.278,0,1,1,0-2.556Zm0,0" transform="translate(0 0)" fill="#2240aa"/>
    <path id="Path_34" data-name="Path 34" d="M164.109,154.7a.71.71,0,0,0-.71.71v13.42a.71.71,0,0,0,1.42,0v-13.42A.71.71,0,0,0,164.109,154.7Zm0,0" transform="translate(-151.799 -143.719)" fill="#2240aa"/>
  </g>
</svg>
