<svg id="work-done" xmlns="http://www.w3.org/2000/svg" width="34.187" height="34.187" viewBox="0 0 34.187 34.187">
  <path id="Path_5461" data-name="Path 5461" d="M17.094,34.187A17.094,17.094,0,1,1,26.1,2.563,1.006,1.006,0,1,1,25.04,4.271a15.058,15.058,0,1,0,6.33,7.944,1.006,1.006,0,0,1,1.9-.65A17.1,17.1,0,0,1,17.094,34.187Z" fill="#009edb"/>
  <path id="Path_5462" data-name="Path 5462" d="M116.474,77.1a1,1,0,0,1-.688-.273l-8.044-7.556a1.005,1.005,0,1,1,1.377-1.465l7.27,6.83L129.6,58.951a1.005,1.005,0,1,1,1.538,1.3L117.243,76.741a1.006,1.006,0,0,1-.71.356Z" transform="translate(-99.381 -54.206)" fill="#ee4d9b"/>
</svg>
