<svg xmlns="http://www.w3.org/2000/svg" width="29.974" height="29.824" viewBox="0 0 29.974 29.824">
  <g id="edit" transform="translate(0 -0.261)">
    <path id="Path_35" data-name="Path 35" d="M27.665,54.983a.746.746,0,0,0-.747.747v6.628a2.242,2.242,0,0,1-2.24,2.24H3.733a2.242,2.242,0,0,1-2.24-2.24V42.9a2.242,2.242,0,0,1,2.24-2.24h6.628a.747.747,0,0,0,0-1.493H3.733A3.737,3.737,0,0,0,0,42.9V62.358a3.737,3.737,0,0,0,3.733,3.733H24.679a3.737,3.737,0,0,0,3.733-3.733V55.73A.746.746,0,0,0,27.665,54.983Zm0,0" transform="translate(0 -36.006)" fill="#2240aa"/>
    <path id="Path_36" data-name="Path 36" d="M128.229,1.245a3.359,3.359,0,0,0-4.751,0L110.16,14.563a.746.746,0,0,0-.192.329l-1.751,6.323a.746.746,0,0,0,.919.919l6.323-1.752a.746.746,0,0,0,.329-.192L129.105,6.872a3.363,3.363,0,0,0,0-4.751Zm-16.443,13.8,10.9-10.9L126.2,7.663l-10.9,10.9Zm-.7,1.409,2.808,2.809-3.885,1.076ZM128.049,5.816l-.792.792-3.516-3.516.792-.792a1.866,1.866,0,0,1,2.639,0l.876.876A1.869,1.869,0,0,1,128.049,5.816Zm0,0" transform="translate(-100.113)" fill="#2240aa"/>
  </g>
</svg>
