<svg xmlns="http://www.w3.org/2000/svg" width="40.586" height="32.54" viewBox="0 0 40.586 32.54">
  <g id="egg" transform="translate(0 -50.749)">
    <path id="Path_45" data-name="Path 45" d="M32.576,73.755c-1.027-6.6-3.786-10.7-6.446-13.2a8.754,8.754,0,0,0-11.993,0c-2.66,2.5-5.419,6.6-6.447,13.2,0,0-1.936,9.248,6.335,14.084a12.089,12.089,0,0,0,12.213,0C34.51,83,32.576,73.755,32.576,73.755Z" transform="translate(-6.899 -6.841)" fill="#e59770"/>
    <path id="Path_46" data-name="Path 46" d="M160.257,87.834a12.084,12.084,0,0,1-7.207,1.6,12.085,12.085,0,0,0,5.082-1.611c8.272-4.836,6.338-14.084,6.338-14.084-1.028-6.6-3.787-10.7-6.446-13.2a8.724,8.724,0,0,0-4.906-2.309,8.74,8.74,0,0,1,7.032,2.316c2.659,2.5,5.418,6.6,6.445,13.2C166.594,73.75,168.529,83,160.257,87.834Z" transform="translate(-140.918 -6.836)" fill="#db7e56"/>
    <path id="Path_47" data-name="Path 47" d="M210.683,74.34c-1.027-6.6-3.786-10.7-6.446-13.2a8.754,8.754,0,0,0-11.993,0c-2.66,2.5-5.419,6.6-6.447,13.2,0,0-1.936,9.248,6.335,14.084a12.089,12.089,0,0,0,12.213,0C212.617,83.589,210.683,74.34,210.683,74.34Z" transform="translate(-170.888 -7.38)" fill="#f9e8d4"/>
    <path id="Path_48" data-name="Path 48" d="M338.362,88.419a12.084,12.084,0,0,1-7.207,1.6,12.086,12.086,0,0,0,5.082-1.611c8.272-4.836,6.338-14.084,6.338-14.084-1.028-6.6-3.787-10.7-6.446-13.2a8.724,8.724,0,0,0-4.906-2.309,8.74,8.74,0,0,1,7.032,2.316c2.659,2.5,5.418,6.6,6.445,13.2C344.7,74.335,346.634,83.583,338.362,88.419Z" transform="translate(-304.905 -7.374)" fill="#e8d0ba"/>
    <circle id="Ellipse_8" data-name="Ellipse 8" cx="6.427" cy="6.427" r="6.427" transform="translate(20.926 65.283)" fill="#fcc927"/>
    <path id="Path_49" data-name="Path 49" d="M302.069,245.6a6.427,6.427,0,0,1-10.683,4.816,6.428,6.428,0,0,0,6.589-10.806A6.43,6.43,0,0,1,302.069,245.6Z" transform="translate(-268.288 -173.892)" fill="#efad0a"/>
    <path id="Path_50" data-name="Path 50" d="M40.379,66.855c-.886-5.676-3.115-10.227-6.623-13.527a9.36,9.36,0,0,0-12.806,0q-.324.3-.634.627-.331-.344-.678-.672a9.36,9.36,0,0,0-12.806,0c-3.509,3.3-5.738,7.851-6.625,13.527a15.069,15.069,0,0,0-.08,4.509,13.42,13.42,0,0,0,4.317,8.465.594.594,0,0,0,.793-.884A12.082,12.082,0,0,1,1.31,71.209a14.072,14.072,0,0,1,.062-4.175c0-.01,0-.02.006-.03.844-5.415,2.953-9.741,6.267-12.858a8.171,8.171,0,0,1,11.179,0q.355.334.691.688a20.445,20.445,0,0,0-2.28,3.275.594.594,0,0,0,1.035.581,18.774,18.774,0,0,1,3.493-4.5,8.171,8.171,0,0,1,11.179,0c3.314,3.118,5.422,7.444,6.266,12.859,0,.01,0,.02.005.029a14.363,14.363,0,0,1-.077,5.041,12,12,0,0,1-5.979,8.41,11.521,11.521,0,0,1-11.614,0,12,12,0,0,1-5.978-8.411,14.361,14.361,0,0,1-.076-5.04c0-.01,0-.02.006-.03a27.275,27.275,0,0,1,1.283-5.089.594.594,0,0,0-1.116-.4,28.463,28.463,0,0,0-1.338,5.3,15.347,15.347,0,0,0,.067,5.444,13.286,13.286,0,0,0,4.826,8.079c-.06.036-.118.073-.179.109a11.475,11.475,0,0,1-10.873.4.594.594,0,1,0-.523,1.066,12.659,12.659,0,0,0,11.995-.438q.32-.187.619-.382c.222.146.449.289.687.428a12.71,12.71,0,0,0,12.812,0A13.322,13.322,0,0,0,40.311,72.3,15.351,15.351,0,0,0,40.379,66.855Z" transform="translate(0 0)"/>
    <path id="Path_51" data-name="Path 51" d="M263.526,240.65h0a7.021,7.021,0,0,0,0-14.042h0a7.021,7.021,0,0,0,0,14.042ZM259.4,229.5a5.8,5.8,0,0,1,4.125-1.708h0a5.834,5.834,0,0,1,0,11.667h0A5.834,5.834,0,0,1,259.4,229.5Z" transform="translate(-236.173 -161.919)"/>
  </g>
</svg>
