<svg xmlns="http://www.w3.org/2000/svg" width="41.029" height="37.308" viewBox="0 0 41.029 37.308">
  <g id="milk-box" transform="translate(0 -22.438)">
    <g id="Group_12" data-name="Group 12" transform="translate(0.622 23.06)">
      <path id="Path_53" data-name="Path 53" d="M59.62,72.673V67.5H52.158v5.18a4.974,4.974,0,0,1-.991,2.979l-1.739,2.325a4.974,4.974,0,0,0-.991,2.979V98.787a1.658,1.658,0,0,0,1.658,1.658H61.7a1.658,1.658,0,0,0,1.658-1.658V80.971a4.974,4.974,0,0,0-1-2.99l-1.743-2.318A4.974,4.974,0,0,1,59.62,72.673Z" transform="translate(-45.044 -64.386)" fill="#fff"/>
      <path id="Path_54" data-name="Path 54" d="M167.713,77.981l-1.743-2.318a4.975,4.975,0,0,1-1-2.99V67.5h-1.658v5.173a4.975,4.975,0,0,0,1,2.99l1.743,2.318a4.975,4.975,0,0,1,1,2.99V98.787a1.658,1.658,0,0,1-1.658,1.658h1.658a1.658,1.658,0,0,0,1.658-1.658V80.971A4.975,4.975,0,0,0,167.713,77.981Z" transform="translate(-150.395 -64.386)" fill="#b6e6fa"/>
      <path id="Path_55" data-name="Path 55" d="M277.5,72.673V67.5h-7.462v5.18a4.974,4.974,0,0,1-.991,2.979L267.3,77.984a4.974,4.974,0,0,0-.991,2.979V98.787a1.658,1.658,0,0,0,1.658,1.658h11.607a1.658,1.658,0,0,0,1.658-1.658V80.971a4.974,4.974,0,0,0-1-2.99l-1.743-2.318A4.974,4.974,0,0,1,277.5,72.673Z" transform="translate(-244.856 -64.386)" fill="#fff"/>
      <path id="Path_56" data-name="Path 56" d="M385.588,77.981l-1.743-2.318a4.975,4.975,0,0,1-1-2.99V67.5h-1.658v5.173a4.975,4.975,0,0,0,1,2.99l1.743,2.318a4.975,4.975,0,0,1,1,2.99V98.787a1.658,1.658,0,0,1-1.658,1.658h1.658a1.658,1.658,0,0,0,1.658-1.658V80.971A4.975,4.975,0,0,0,385.588,77.981Z" transform="translate(-350.207 -64.386)" fill="#b6e6fa"/>
      <path id="Path_57" data-name="Path 57" d="M88.387,33.052H78.438V30.767a.829.829,0,0,1,.829-.829h8.291a.829.829,0,0,1,.829.829Z" transform="translate(-72.557 -29.938)" fill="#b6e6fa"/>
      <path id="Path_58" data-name="Path 58" d="M170.1,29.938h-1.658a.829.829,0,0,1,.829.829v2.285h1.658V30.767A.829.829,0,0,0,170.1,29.938Z" transform="translate(-155.095 -29.938)" fill="#54c9f3"/>
      <path id="Path_59" data-name="Path 59" d="M306.262,33.052h-9.949V30.767a.829.829,0,0,1,.829-.829h8.291a.829.829,0,0,1,.829.829Z" transform="translate(-272.368 -29.938)" fill="#b6e6fa"/>
      <path id="Path_60" data-name="Path 60" d="M387.971,29.938h-1.658a.829.829,0,0,1,.829.829v2.285H388.8V30.767A.829.829,0,0,0,387.971,29.938Z" transform="translate(-354.907 -29.938)" fill="#54c9f3"/>
      <path id="Path_61" data-name="Path 61" d="M7.5,254.938H47.285v7.047H7.5Z" transform="translate(-7.5 -236.284)" fill="#dfba7f"/>
      <path id="Path_62" data-name="Path 62" d="M45.627,254.938v5.389H7.5v1.658H47.285v-7.047Z" transform="translate(-7.5 -236.284)" fill="#f69500"/>
      <path id="Path_63" data-name="Path 63" d="M7.5,379.938H47.285v7.047H7.5Z" transform="translate(-7.5 -350.921)" fill="#dfba7f"/>
      <path id="Path_64" data-name="Path 64" d="M45.627,379.938v5.389H7.5v1.658H47.285v-7.047Z" transform="translate(-7.5 -350.921)" fill="#f69500"/>
    </g>
    <g id="Group_15" data-name="Group 15" transform="translate(0 22.438)">
      <g id="Group_13" data-name="Group 13" transform="translate(0 0)">
        <path id="Path_65" data-name="Path 65" d="M41.029,49.383V41.092h-3.4V39.645A5.63,5.63,0,0,0,36.5,36.281l-1.743-2.318a4.38,4.38,0,0,1-.874-2.616V26.8h1.254V23.889a1.453,1.453,0,0,0-1.451-1.451H25.4a1.453,1.453,0,0,0-1.451,1.451V26.8h1.233v4.558a4.381,4.381,0,0,1-.867,2.607l-1.739,2.325a5.632,5.632,0,0,0-1.115,3.352v1.455h-1.9V39.645a5.631,5.631,0,0,0-1.124-3.364l-1.743-2.318a4.38,4.38,0,0,1-.874-2.616V26.8h1.254V23.889a1.453,1.453,0,0,0-1.451-1.451H10.6v1.244h5.021a.208.208,0,0,1,.207.207v1.663H7.125V23.889a.208.208,0,0,1,.207-.207H9.358V22.438H7.332a1.453,1.453,0,0,0-1.451,1.451V26.8H7.115v4.558a4.381,4.381,0,0,1-.867,2.607L4.509,36.286a5.632,5.632,0,0,0-1.115,3.352v1.455H0v8.291H3.394v2.073H0v8.291H41.029V51.455h-3.4V49.383ZM25.188,23.889a.208.208,0,0,1,.207-.207h8.291a.208.208,0,0,1,.207.207v1.663H25.188ZM32.64,26.8v1.865H26.421V26.8Zm-24.281,0h6.218v1.865H8.358ZM4.638,39.637A4.381,4.381,0,0,1,5.5,37.031l1.739-2.325a5.632,5.632,0,0,0,1.115-3.352V29.9h6.218v1.442A5.631,5.631,0,0,0,15.7,34.71l1.743,2.318a4.38,4.38,0,0,1,.874,2.616v1.447H4.638ZM39.785,52.7v5.8H1.244V52.7H14.3V51.455H4.638V49.383h13.68v2.073H15.535V52.7ZM19.561,51.455V49.383h1.9v2.073Zm3.14,0V49.383h13.68v2.073ZM1.244,48.139v-5.8H27.971V41.092H22.7V39.638a4.381,4.381,0,0,1,.867-2.607l1.739-2.325a5.632,5.632,0,0,0,1.115-3.352V29.9h6.218v1.442a5.631,5.631,0,0,0,1.124,3.364l1.743,2.318a4.38,4.38,0,0,1,.874,2.616v1.447H29.214v1.244H39.785v5.8Z" transform="translate(0 -22.438)"/>
        <path id="Path_66" data-name="Path 66" d="M44.708,292.1h1.216v1.244H44.708Z" transform="translate(-41.001 -269.747)"/>
        <path id="Path_67" data-name="Path 67" d="M44.708,412.438h1.216v1.244H44.708Z" transform="translate(-41.001 -380.104)"/>
        <path id="Path_68" data-name="Path 68" d="M435.708,292.1h1.216v1.244h-1.216Z" transform="translate(-399.585 -269.747)"/>
        <path id="Path_69" data-name="Path 69" d="M435.708,412.438h1.216v1.244h-1.216Z" transform="translate(-399.585 -380.104)"/>
      </g>
      <g id="Group_14" data-name="Group 14" transform="translate(24.35 33.577)">
        <path id="Path_70" data-name="Path 70" d="M299.926,428.682h-1.244v-1.244h1.244Zm-2.487,0H296.2v-1.244h1.244Zm-2.487,0h-1.244v-1.244h1.244Z" transform="translate(-293.708 -427.438)" fill="#fff"/>
      </g>
    </g>
  </g>
</svg>
