<svg xmlns="http://www.w3.org/2000/svg" width="29.853" height="38.103" viewBox="0 0 29.853 38.103">
  <g id="sale-2" transform="translate(-55.432 0.001)">
    <g id="Group_18" data-name="Group 18" transform="translate(56.037 -0.001)">
      <path id="Path_71" data-name="Path 71" d="M77.15,104.5l-5.435,2.647a2.353,2.353,0,0,0-1.1,1.154l-6.78,17a3.143,3.143,0,0,0,1.6,4.144l6.744,2.988h5.009Z" transform="translate(-63.569 -96.723)" fill="#faa515"/>
      <path id="Path_72" data-name="Path 72" d="M195.459,123.017v3.274a3.383,3.383,0,0,1-3.349,3.349H178.342a3.319,3.319,0,0,1-3.274-3.349V107.016a2.408,2.408,0,0,1,.529-1.564l4.139-5.015a2.454,2.454,0,0,1,1.881-.937h7.219a2.454,2.454,0,0,1,1.881.937l4.139,5.015a2.481,2.481,0,0,1,.6,1.564v16Z" transform="translate(-166.77 -92.095)" fill="#fad207"/>
      <g id="Group_16" data-name="Group 16" transform="translate(13.005 19.215)">
        <path id="Path_73" data-name="Path 73" d="M242.645,264.8h0l-.019-.019-.031-.031-.77-.77-.109.218a2.408,2.408,0,0,0-.815-.142h-.074a2.417,2.417,0,0,0-2.286,3.208l-.226.116.8.8.01.01.011.011h0a2.41,2.41,0,0,0,1.694.694h.074a2.417,2.417,0,0,0,1.744-4.092Zm-1.744,2.976h-.074a1.3,1.3,0,0,1,0-2.6h.074a1.3,1.3,0,1,1,0,2.6Z" transform="translate(-238.315 -263.549)" fill="#f8c201" fill-rule="evenodd"/>
        <path id="Path_74" data-name="Path 74" d="M252.824,258.941l-.744-.744-10.315,10.315.744.744a.558.558,0,0,0,.789,0l9.526-9.526A.558.558,0,0,0,252.824,258.941Z" transform="translate(-241.508 -258.197)" fill="#f8c201" fill-rule="evenodd"/>
        <path id="Path_75" data-name="Path 75" d="M340.777,344.192h0l-.616-.624.04.253a2.4,2.4,0,0,0-1.008-.221h-.074a2.417,2.417,0,0,0-2.215,3.388l-.273-.04.741.74q.04.042.081.081l.017.017h0a2.409,2.409,0,0,0,1.649.652h.074a2.417,2.417,0,0,0,1.583-4.245Zm-1.583,3.129h-.074a1.3,1.3,0,1,1,0-2.6h.074a1.3,1.3,0,1,1,0,2.6Z" transform="translate(-329.314 -337.214)" fill="#f8c201" fill-rule="evenodd"/>
      </g>
      <g id="Group_17" data-name="Group 17" transform="translate(12.354 18.977)">
        <path id="Path_76" data-name="Path 76" d="M240.125,266.642a.558.558,0,0,1-.395-.953l9.526-9.526a.558.558,0,1,1,.789.789l-9.526,9.526A.556.556,0,0,1,240.125,266.642Z" transform="translate(-238.823 -255.926)" fill="#f5f5f5"/>
        <path id="Path_77" data-name="Path 77" d="M232.061,259.837h-.074a2.419,2.419,0,0,1,0-4.837h.074a2.419,2.419,0,0,1,0,4.837Zm-.074-3.721a1.3,1.3,0,0,0,0,2.6h.074a1.3,1.3,0,1,0,0-2.6Z" transform="translate(-229.568 -255)" fill="#f5f5f5"/>
        <path id="Path_78" data-name="Path 78" d="M330.061,338.837h-.074a2.419,2.419,0,0,1,0-4.837h.074a2.419,2.419,0,1,1,0,4.837Zm-.074-3.721a1.3,1.3,0,1,0,0,2.6h.074a1.3,1.3,0,1,0,0-2.6Z" transform="translate(-320.275 -328.121)" fill="#f5f5f5"/>
      </g>
      <path id="Path_79" data-name="Path 79" d="M320.929,11.943a.558.558,0,0,1-.155-1.094c.063-.018.127-.038.189-.06a4.2,4.2,0,0,0,2.845-3.98V.557a.558.558,0,0,1,1.116,0V6.808a5.321,5.321,0,0,1-3.6,5.037c-.079.027-.16.052-.24.076A.557.557,0,0,1,320.929,11.943Z" transform="translate(-301.259 0.001)" fill="#e0a446"/>
      <path id="Path_80" data-name="Path 80" d="M290.317,135.5a1.749,1.749,0,1,1,1.749-1.749A1.751,1.751,0,0,1,290.317,135.5Z" transform="translate(-271.823 -122.176)" fill="#f5f5f5"/>
    </g>
    <g id="Group_19" data-name="Group 19" transform="translate(55.432 -0.001)">
      <path id="Path_81" data-name="Path 81" d="M84.726,28.876a.558.558,0,0,0,.558-.558v-13.4A3.049,3.049,0,0,0,84.553,13L80.414,7.988a3.273,3.273,0,0,0-.737-.661c.017-.171.026-.343.026-.517V.559a.558.558,0,0,0-1.116,0s0,6.3,0,6.331a2.763,2.763,0,0,0-.482-.043H70.884a2.866,2.866,0,0,0-1.452.4.566.566,0,0,0-.057.024l-5.441,2.65a2.916,2.916,0,0,0-1.357,1.428l-.008.02-2.25,5.706a.558.558,0,1,0,1.039.409L63.6,11.8a1.794,1.794,0,0,1,.826-.868l2.875-1.4L64.434,13a2.969,2.969,0,0,0-.657,1.919V34.2a3.99,3.99,0,0,0,.056.658l-5.751-2.548A2.588,2.588,0,0,1,56.769,28.9l.007-.017,3.638-9.041a.558.558,0,0,0-1.036-.417l-3.635,9.032a3.706,3.706,0,0,0,1.885,4.871l6.744,2.988.025.01A3.815,3.815,0,0,0,67.61,38.1H81.377A3.959,3.959,0,0,0,85.284,34.2V30.922a.558.558,0,0,0-1.116,0V34.2a2.828,2.828,0,0,1-2.791,2.791H67.61A2.757,2.757,0,0,1,64.893,34.2V14.922a1.843,1.843,0,0,1,.4-1.208L69.434,8.7a1.906,1.906,0,0,1,1.45-.735H78.1a1.644,1.644,0,0,1,.313.031,4.2,4.2,0,0,1-2.384,2.684,1.748,1.748,0,1,0,.233,1.109,5.319,5.319,0,0,0,3.146-3.244c.049.049.1.1.141.155l4.139,5.016a1.935,1.935,0,0,1,.476,1.208v13.4a.558.558,0,0,0,.558.558Zm-10.2-16.67a.633.633,0,1,1,.633-.633A.633.633,0,0,1,74.531,12.206Z" transform="translate(-55.432 -0.001)"/>
      <path id="Path_82" data-name="Path 82" d="M240.14,266.642a.556.556,0,0,0,.395-.164l9.526-9.526a.558.558,0,0,0-.789-.789l-9.526,9.526A.562.562,0,0,0,240.14,266.642Z" transform="translate(-225.879 -236.949)"/>
      <path id="Path_83" data-name="Path 83" d="M232.061,259.837a2.419,2.419,0,0,0,0-4.837h-.074a2.419,2.419,0,0,0,0,4.837Zm-1.377-2.419a1.3,1.3,0,0,1,1.3-1.3h.074a1.3,1.3,0,1,1,0,2.6h-.074A1.3,1.3,0,0,1,230.684,257.419Z" transform="translate(-216.609 -236.023)"/>
      <path id="Path_84" data-name="Path 84" d="M329.987,338.837h.074a2.419,2.419,0,1,0,0-4.837h-.074a2.419,2.419,0,0,0,0,4.837Zm0-3.721h.074a1.3,1.3,0,1,1,0,2.6h-.074a1.3,1.3,0,1,1,0-2.6Z" transform="translate(-307.316 -309.144)"/>
    </g>
  </g>
</svg>
