<svg xmlns="http://www.w3.org/2000/svg" width="40.719" height="37.762" viewBox="0 0 40.719 37.762">
  <g id="sheep-2" transform="translate(0 -18.588)">
    <g id="Group_1" data-name="Group 1" transform="translate(0.795 19.383)">
      <path id="Path_1" data-name="Path 1" d="M35.663,129.4c-5.084,0-9.2-3.409-9.2-7.613a6.383,6.383,0,0,1,.235-1.716,10.452,10.452,0,0,1-4.5-.566l2.733-2.733a6.008,6.008,0,0,0-3.479-1.121,6.25,6.25,0,0,0-5.022,2.636,2.531,2.531,0,0,0-1.619-.593,2.854,2.854,0,0,0-2.7,2.984,3.182,3.182,0,0,0,.5,1.727,5.78,5.78,0,0,0-.059,9.622c-.014.194-.024.39-.024.588,0,3.945,2.9,7.142,6.474,7.142a6.31,6.31,0,0,0,5.29-3.027,6.31,6.31,0,0,0,5.29,3.027c3.545,0,6.423-3.144,6.472-7.042a5.184,5.184,0,0,0,4.607-4.534A10.593,10.593,0,0,1,35.663,129.4Z" transform="translate(-10 -108.724)" fill="#ffdc9f"/>
      <path id="Path_2" data-name="Path 2" d="M233.431,31.365l-.088,0a3.18,3.18,0,0,0-5.817-1.337,3.18,3.18,0,0,0-5.817,1.337l-.088,0a3.181,3.181,0,0,0,0,6.362l.1,0a3.474,3.474,0,0,0,5.808-.014,3.474,3.474,0,0,0,5.808.014l.1,0a3.181,3.181,0,1,0,0-6.362Z" transform="translate(-201.863 -28.589)" fill="#ffdc9f"/>
    </g>
    <path id="Path_3" data-name="Path 3" d="M233.684,137.828a3.165,3.165,0,0,1-1.631.45l-.1,0a3.474,3.474,0,0,1-5.808-.014,3.474,3.474,0,0,1-5.808.014l-.1,0a3.165,3.165,0,0,1-1.631-.45,6.721,6.721,0,0,0-1.668,4.372c0,4.2,4.121,7.613,9.2,7.613s9.2-3.409,9.2-7.613A6.721,6.721,0,0,0,233.684,137.828Z" transform="translate(-199.69 -109.757)" fill="#ffad61"/>
    <path id="Path_4" data-name="Path 4" d="M313.352,221.983l1.061-1.573a.656.656,0,0,0-.544-1.022h-2.121a.656.656,0,0,0-.544,1.022l1.061,1.573A.656.656,0,0,0,313.352,221.983Z" transform="translate(-286.35 -184.831)" fill="#87635c"/>
    <path id="Path_5" data-name="Path 5" d="M377.143,180.087h-.8a.8.8,0,0,1,0-1.591h.8a.8.8,0,0,1,0,1.591Z" transform="translate(-345.682 -147.191)"/>
    <path id="Path_6" data-name="Path 6" d="M261.37,180.087h-.8a.8.8,0,0,1,0-1.591h.8a.8.8,0,0,1,0,1.591Z" transform="translate(-239.116 -147.191)"/>
    <g id="Group_2" data-name="Group 2" transform="translate(6.369 25.754)">
      <path id="Path_7" data-name="Path 7" d="M169.3,111.009l.077.045a3.18,3.18,0,0,1-1.6-2.361l-4.407,4.407a10.45,10.45,0,0,0,4.5.566A7.025,7.025,0,0,1,169.3,111.009Z" transform="translate(-156.749 -108.693)" fill="#6d504a"/>
      <path id="Path_8" data-name="Path 8" d="M428.068,108.693a3.18,3.18,0,0,1-1.6,2.361c.026-.015.053-.028.078-.043a7.018,7.018,0,0,1,1.432,2.656,10.45,10.45,0,0,0,4.5-.566Z" transform="translate(-398.92 -108.693)" fill="#6d504a"/>
      <rect id="Rectangle_1" data-name="Rectangle 1" width="4.294" height="3" transform="translate(0 26.801)" fill="#6d504a"/>
      <rect id="Rectangle_2" data-name="Rectangle 2" width="4.294" height="3" transform="translate(14.868 26.801)" fill="#6d504a"/>
    </g>
    <g id="Group_3" data-name="Group 3" transform="translate(6.368 47.588)">
      <path id="Path_9" data-name="Path 9" d="M83.5,406.255a6.006,6.006,0,0,1-3.425-1.081V408.4h4.294V406.19A5.919,5.919,0,0,1,83.5,406.255Z" transform="translate(-80.077 -403.429)" fill="#ffad61"/>
      <path id="Path_10" data-name="Path 10" d="M267.033,386v2.205h4.294v-4.967A6.375,6.375,0,0,1,267.033,386Z" transform="translate(-252.165 -383.239)" fill="#ffad61"/>
    </g>
    <path id="Path_11" data-name="Path 11" d="M40.486,29.6,36.337,25.45c0-.036,0-.073,0-.109A3.982,3.982,0,0,0,32.924,21.4a3.976,3.976,0,0,0-6.466-1.793A3.976,3.976,0,0,0,19.993,21.4a3.977,3.977,0,0,0-3.416,3.938c0,.036,0,.072,0,.108l-.966.966a6.759,6.759,0,0,0-3.366-.9,6.947,6.947,0,0,0-5.191,2.38,3.264,3.264,0,0,0-1.45-.337,3.652,3.652,0,0,0-3.5,3.779A4.025,4.025,0,0,0,2.381,32.8,6.62,6.62,0,0,0,2.526,43.09c0,.062,0,.122,0,.182a8.174,8.174,0,0,0,3.049,6.459v5.824a.8.8,0,0,0,.8.8h4.294a.8.8,0,0,0,.8-.8V51a7.171,7.171,0,0,0,3.626-2.284,7,7,0,0,0,5.29,2.5h.068v4.347a.8.8,0,0,0,.8.8h4.294a.8.8,0,0,0,.8-.8V47.83a8.329,8.329,0,0,0,1.279-3.759,5.619,5.619,0,0,0,2.828-1.529,6.452,6.452,0,0,0,1.732-3.2,8.118,8.118,0,0,0,4.293-6.9,7.2,7.2,0,0,0-.051-.838,12.689,12.689,0,0,0,3.786-.7.8.8,0,0,0,.292-1.31Zm-21.62-5.945a2.371,2.371,0,0,1,1.687-.7h.067a.8.8,0,0,0,.81-.7,2.385,2.385,0,0,1,4.363-1,.8.8,0,0,0,1.331,0,2.385,2.385,0,0,1,4.363,1,.793.793,0,0,0,.81.7h.067a2.381,2.381,0,0,1,2.365,2.7h0a2.394,2.394,0,0,1-1.2,1.768l0,0,0,0-.043.024-.062.032-.078.036-.047.021c-.041.017-.083.034-.125.049l-.042.014-.1.032-.038.011a2.4,2.4,0,0,1-.286.058l-.036,0-.113.011-.04,0c-.049,0-.1,0-.147,0H32.29a.805.805,0,0,0-.372.08l-.019.008a.794.794,0,0,0-.3.268,2.723,2.723,0,0,1-.2.268,2.678,2.678,0,0,1-4.277-.279.8.8,0,0,0-1.331,0,2.678,2.678,0,0,1-4.479.011.8.8,0,0,0-.687-.356h-.078c-.045,0-.089,0-.134,0l-.064-.005-.073-.007L20.2,27.7l-.047-.008a2.389,2.389,0,0,1-1.286-.666h0A2.413,2.413,0,0,1,18.6,26.7l-.025-.035-.036-.057-.032-.052-.03-.051-.033-.061-.024-.047c-.012-.023-.023-.047-.033-.071l-.019-.042c-.012-.028-.024-.057-.035-.086l-.012-.03a2.356,2.356,0,0,1-.077-.246l-.005-.024c-.008-.034-.016-.069-.023-.1l0-.027c-.007-.036-.012-.072-.017-.108a2.4,2.4,0,0,1-.022-.32A2.368,2.368,0,0,1,18.866,23.654Zm7.593,12.883-.8-1.184h1.6Zm-9.34-9.2c.019.032.038.063.057.094l.029.047a4.015,4.015,0,0,0,.605.736c-.029.041-.056.083-.084.125l-.045.067q-.08.123-.155.247c-.021.035-.041.071-.061.106s-.055.1-.082.144-.052.1-.078.144l-.049.1a7.48,7.48,0,0,0-.371.859l-.042,0-.062,0-.108,0-.064,0h-.171l-.166,0-.051,0L16.1,30,16.03,30l-.1-.007-.078-.007-.093-.009-.078-.008-.1-.011-.072-.009-.132-.018-.081-.012L15.2,29.9l-.072-.012-.089-.016-.072-.013-.087-.017-.069-.014-.088-.018-.063-.013-.107-.024-.035-.008,1.775-1.775h0l.765-.765.024.043ZM9.867,54.76h-2.7V53.351h2.7Zm0-3.551v.552h-2.7V50.673a6.764,6.764,0,0,0,1.522.444l.014,0,.162.025.032,0,.145.018.043,0,.135.013.052,0,.126.009.06,0,.119,0,.068,0,.109,0h.117Zm14.869-1.586V51.76h-2.7V51A6.934,6.934,0,0,0,24.736,49.623Zm0,5.137h-2.7V53.351h2.7Zm5.432-14.506a4.134,4.134,0,0,1-3.374,2.324.8.8,0,0,0-.744.784A6.234,6.234,0,0,1,21.5,49.491h0c-.077.018-.155.032-.233.047l-.074.013a5.057,5.057,0,0,1-.821.068,5.537,5.537,0,0,1-4.62-2.661.8.8,0,0,0-1.34,0,5.633,5.633,0,0,1-3.909,2.61c-.068.01-.136.018-.2.025h-.009c-.073.007-.145.012-.218.016l-.043,0c-.072,0-.144.006-.216.006H9.806l-.073,0c-.068,0-.136,0-.2-.006l-.1-.007c-.059,0-.117-.009-.175-.015l-.1-.012q-.085-.011-.17-.024l-.1-.016c-.06-.011-.12-.023-.179-.036l-.081-.017c-.084-.02-.167-.041-.25-.065l-.006,0q-.131-.038-.26-.083l-.043-.016c-.07-.025-.14-.051-.209-.079L7.8,49.215c-.065-.027-.129-.055-.193-.085L7.555,49.1q-.1-.048-.2-.1l-.044-.023q-.108-.059-.213-.122l-.02-.012a6.494,6.494,0,0,1-2.969-5.576c0-.161.007-.334.021-.529a.8.8,0,0,0-.375-.735,4.986,4.986,0,0,1,.049-8.263.8.8,0,0,0,.26-1.113,2.384,2.384,0,0,1-.373-1.3,2.066,2.066,0,0,1,1.909-2.188,1.735,1.735,0,0,1,1.113.411.8.8,0,0,0,1.146-.141A5.452,5.452,0,0,1,12.248,27.1a5.145,5.145,0,0,1,2.188.491L12.43,29.6a.8.8,0,0,0,.292,1.31,13.285,13.285,0,0,0,3.1.667h0l.165.012.04,0,.131.007.056,0,.116,0h.17c0,.04-.008.079-.012.119s-.006.054-.008.082c-.008.091-.014.181-.019.272,0,.025,0,.051,0,.076,0,.1-.007.193-.007.29a7.136,7.136,0,0,0,.052.859c.5,4.164,4.638,7.439,9.691,7.547l.257,0h0l.248,0,.086,0,.162-.005.1,0,.149-.008.1-.007.147-.011.1-.009.153-.015.084-.009.167-.02.067-.009.187-.026.044-.007.216-.035.012,0A11.418,11.418,0,0,0,30.168,40.254Zm.895-2.109q-.239.128-.488.241l-.046.021q-.242.109-.491.2l-.06.023c-.082.031-.164.061-.246.089h0c-.083.029-.167.056-.251.082l-.063.02c-.081.025-.162.049-.244.071l-.011,0c-.086.024-.173.046-.261.068l-.059.014q-.121.029-.244.055l-.021,0q-.134.028-.27.053l-.053.009-.242.04-.035.005q-.137.02-.275.037l-.048.005-.236.024-.055.005-.106.008V38a1.449,1.449,0,0,0,.408-.4l1.061-1.573a1.451,1.451,0,0,0-1.2-2.262H25.4a1.451,1.451,0,0,0-1.2,2.262L25.255,37.6a1.45,1.45,0,0,0,.408.4V39.23c-4.265-.326-7.614-3.245-7.614-6.787,0-.069,0-.139,0-.208,0-.024,0-.047,0-.071,0-.045,0-.091.008-.136,0-.028,0-.056.007-.084s.008-.082.012-.123.007-.058.01-.086.011-.083.017-.124.008-.054.013-.081c.008-.047.016-.094.025-.141,0-.021.008-.042.012-.063q.021-.1.045-.2l0-.015c.013-.054.028-.107.042-.161l0-.005q.077-.276.181-.543l.007-.019q.048-.121.1-.241l.012-.027q.112-.25.249-.491l.042-.073q.046-.079.095-.158L19,29.3c.032-.05.066-.1.1-.15.018-.026.035-.053.054-.079l.006-.008a3.974,3.974,0,0,0,.884.219l.017,0c.061.008.122.014.183.019l.006.007a4.259,4.259,0,0,0,3.3,1.563q.1,0,.2,0a4.253,4.253,0,0,0,2.7-1.139,4.269,4.269,0,0,0,6.216-.426l.018,0,.145-.015.069-.009.1-.015.072-.012.135-.027.079-.018.1-.024.07-.019.1-.03.056-.018c.049-.016.1-.033.145-.051l.009.012.038.056q.059.086.115.173l.048.076q.053.084.1.17l.037.064q.137.243.251.5l.011.024q.054.121.1.244l.006.016q.1.268.181.544l0,.006a5.591,5.591,0,0,1,.2,1.5A6.615,6.615,0,0,1,31.063,38.145ZM36.031,30a7.514,7.514,0,0,0-.374-.866l-.044-.085q-.04-.077-.082-.153c-.024-.043-.048-.085-.072-.128s-.046-.081-.071-.122q-.072-.12-.149-.239l-.057-.085c-.025-.037-.049-.075-.075-.112a4,4,0,0,0,.756-.99l2.54,2.54A8.468,8.468,0,0,1,36.031,30Z" transform="translate(0 0)"/>
    <path id="Path_12" data-name="Path 12" d="M46.613,237.924c-2.254,0-4.088-2.134-4.088-4.756,0-.121.006-.256.017-.412l.107-1.444-1.231-.762A3.4,3.4,0,0,1,41.446,225a.8.8,0,1,1,.817,1.365,1.831,1.831,0,0,0-.01,2.829l1.642,1.015a.8.8,0,0,1,.375.735l-.143,1.925c-.009.116-.013.213-.013.294,0,1.746,1.12,3.166,2.5,3.166a2.351,2.351,0,0,0,1.941-1.2l.629-.982a.8.8,0,0,1,1.339.858l-.629.982A3.906,3.906,0,0,1,46.613,237.924Z" transform="translate(-36.819 -189.896)"/>
    <path id="Path_13" data-name="Path 13" d="M180.465,302.116a.785.785,0,0,1-.155-.016.8.8,0,0,1-.149-.045.817.817,0,0,1-.138-.073.763.763,0,0,1-.121-.1.8.8,0,0,1-.1-.121.82.82,0,0,1-.073-.138.81.81,0,0,1-.045-.149.782.782,0,0,1-.015-.155.8.8,0,0,1,.015-.156.848.848,0,0,1,.045-.149.811.811,0,0,1,.073-.137.76.76,0,0,1,.1-.121.783.783,0,0,1,.258-.173.8.8,0,0,1,.149-.045.787.787,0,0,1,.311,0,.8.8,0,0,1,.149.045.841.841,0,0,1,.137.073.9.9,0,0,1,.121.1.809.809,0,0,1,.172.258.843.843,0,0,1,.045.149.8.8,0,0,1,.015.156.782.782,0,0,1-.015.155.8.8,0,0,1-.045.149.816.816,0,0,1-.073.138.854.854,0,0,1-.1.121.843.843,0,0,1-.121.1.852.852,0,0,1-.137.073.807.807,0,0,1-.149.045A.794.794,0,0,1,180.465,302.116Z" transform="translate(-165.382 -259.515)"/>
    <path id="Path_14" data-name="Path 14" d="M207.808,325.213a3.906,3.906,0,0,1-3.281-1.928l-.773-1.207a.8.8,0,0,1,1.34-.858l.773,1.207a2.351,2.351,0,0,0,1.941,1.2c1.355,0,2.474-1.4,2.5-3.115a.8.8,0,0,1,.795-.785h.01a.8.8,0,0,1,.785.805C211.862,323.111,210.029,325.213,207.808,325.213Z" transform="translate(-187.434 -277.185)"/>
  </g>
</svg>
