<svg id="sold-out" xmlns="http://www.w3.org/2000/svg" width="30.319" height="30.319" viewBox="0 0 30.319 30.319">
  <path id="Path_16" data-name="Path 16" d="M27.913,12.753H26.595L17.563,2.49c0-.028,0-.056,0-.084a2.406,2.406,0,1,0-4.812,0c0,.028,0,.056,0,.084L10.888,4.612a.444.444,0,0,0,.667.587l1.474-1.675a2.422,2.422,0,0,0,.707.822l-7.4,8.408H4.907l5.484-6.232a.444.444,0,1,0-.667-.587l-6,6.818H2.406A2.409,2.409,0,0,0,0,15.159V27.913a2.409,2.409,0,0,0,2.406,2.406H6.33a.444.444,0,1,0,0-.888H2.406A1.52,1.52,0,0,1,.888,27.913V15.159a1.52,1.52,0,0,1,1.518-1.518H27.912a1.52,1.52,0,0,1,1.518,1.518V27.913a1.52,1.52,0,0,1-1.518,1.518H8.127a.444.444,0,1,0,0,.888H27.913a2.409,2.409,0,0,0,2.406-2.406V15.159a2.409,2.409,0,0,0-2.406-2.406Zm-2.5,0h-1.43l-7.4-8.408a2.423,2.423,0,0,0,.707-.822ZM15.159.888a1.518,1.518,0,1,1-1.518,1.518A1.52,1.52,0,0,1,15.159.888ZM14.573,4.74a2.405,2.405,0,0,0,1.173,0L22.8,12.753H7.521Z" fill="#2240aa"/>
  <path id="Path_17" data-name="Path 17" d="M34.021,247.118v-.245a.444.444,0,1,0-.888,0v.245a.444.444,0,1,0,.888,0Z" transform="translate(-31.171 -231.836)" fill="#2240aa"/>
  <path id="Path_18" data-name="Path 18" d="M35.126,261.4a.937.937,0,0,0,.913.738H56.62a.936.936,0,0,0,.915-.748,1.608,1.608,0,0,1,1.247-1.246.934.934,0,0,0,.747-.915v-7.824a.935.935,0,0,0-.748-.915,1.609,1.609,0,0,1-1.246-1.246h0a.935.935,0,0,0-.914-.747H36.039a.937.937,0,0,0-.913.738,1.586,1.586,0,0,1-1.241,1.193.937.937,0,0,0-.752.916v7.946a.936.936,0,0,0,.751.916,1.586,1.586,0,0,1,1.242,1.193Zm-1.1-2.109v-7.946a.046.046,0,0,1,.038-.045A2.485,2.485,0,0,0,36,249.423a.044.044,0,0,1,.044-.035H56.621a.044.044,0,0,1,.043.034,2.506,2.506,0,0,0,1.941,1.941.045.045,0,0,1,.035.045v7.824a.044.044,0,0,1-.033.044,2.506,2.506,0,0,0-1.943,1.941.045.045,0,0,1-.045.035H36.04a.045.045,0,0,1-.044-.035,2.485,2.485,0,0,0-1.937-1.88A.046.046,0,0,1,34.022,259.294Z" transform="translate(-31.172 -233.785)" fill="#2240aa"/>
  <path id="Path_19" data-name="Path 19" d="M464.755,247.118v-.245a.444.444,0,0,0-.888,0v.245a.444.444,0,0,0,.888,0Z" transform="translate(-436.399 -231.836)" fill="#2240aa"/>
  <path id="Path_20" data-name="Path 20" d="M33.133,462.24v.245a.444.444,0,1,0,.888,0v-.245a.444.444,0,1,0-.888,0Z" transform="translate(-31.171 -434.45)" fill="#2240aa"/>
  <path id="Path_21" data-name="Path 21" d="M463.867,462.24v.245a.444.444,0,1,0,.888,0v-.245a.444.444,0,1,0-.888,0Z" transform="translate(-436.399 -434.45)" fill="#2240aa"/>
  <path id="Path_22" data-name="Path 22" d="M291.121,321.775a4.911,4.911,0,0,0,.595.011c.26,0,.641,0,1.2,0a.444.444,0,0,0,0-.888h0c-.45,0-.936,0-1.271,0v-4.461a.444.444,0,0,0-.888,0v4.9A.444.444,0,0,0,291.121,321.775Z" transform="translate(-273.535 -297.28)" fill="#2240aa"/>
  <path id="Path_23" data-name="Path 23" d="M353.922,323.648a.444.444,0,0,0,.444.443h0c.041,0,1,0,1.384-.011a2.543,2.543,0,0,0,2.319-2.814c0-1.689-.951-2.824-2.366-2.824h-1.348a.444.444,0,0,0-.444.445S353.922,323.63,353.922,323.648Zm1.783-4.317c1.09,0,1.478,1,1.478,1.936,0,.915-.453,1.908-1.446,1.925-.211,0-.613.007-.928.008,0-.558-.006-3.291-.007-3.87Z" transform="translate(-332.955 -299.585)" fill="#2240aa"/>
  <path id="Path_24" data-name="Path 24" d="M90.015,321.78a1.878,1.878,0,0,0,1.9-1.429,1.688,1.688,0,0,0-1.318-1.846c-.63-.232-1.215-.486-1.363-.552a.5.5,0,0,1-.2-.49.673.673,0,0,1,.509-.531,1.806,1.806,0,0,1,1.506.343.444.444,0,0,0,.57-.681,2.68,2.68,0,0,0-2.332-.512,1.558,1.558,0,0,0-1.132,1.255,1.392,1.392,0,0,0,.62,1.378.442.442,0,0,0,.062.034c.028.013.7.311,1.454.59.539.2.813.511.751.856a.983.983,0,0,1-1.023.7,1.879,1.879,0,0,1-1.38-.581.444.444,0,1,0-.658.6A2.78,2.78,0,0,0,90.015,321.78Z" transform="translate(-82.658 -297.275)" fill="#2240aa"/>
  <path id="Path_25" data-name="Path 25" d="M177.682,321.784a2.9,2.9,0,1,0-2.9-2.9A2.9,2.9,0,0,0,177.682,321.784Zm0-4.905a2.008,2.008,0,1,1-2.008,2.008A2.011,2.011,0,0,1,177.682,316.879Z" transform="translate(-164.435 -297.279)" fill="#2240aa"/>
  <path id="Path_26" data-name="Path 26" d="M50.144,51.569h.537v.537a.444.444,0,1,0,.888,0v-.537h.537a.444.444,0,1,0,0-.888h-.537v-.537a.444.444,0,1,0-.888,0v.537h-.537a.444.444,0,0,0,0,.888Z" transform="translate(-46.757 -46.757)" fill="#2240aa"/>
  <path id="Path_27" data-name="Path 27" d="M431.178,84.7h.537v.537a.444.444,0,1,0,.888,0V84.7h.537a.444.444,0,1,0,0-.888H432.6v-.537a.444.444,0,1,0-.888,0v.537h-.537a.444.444,0,0,0,0,.888Z" transform="translate(-405.228 -77.929)" fill="#2240aa"/>
  <path id="Path_28" data-name="Path 28" d="M201.206,150.081h-.537v-.537a.444.444,0,1,0-.888,0v.537h-.537a.444.444,0,0,0,0,.888h.537v.537a.444.444,0,0,0,.888,0v-.537h.537a.444.444,0,1,0,0-.888Z" transform="translate(-187.028 -140.271)" fill="#2240aa"/>
</svg>
