<svg xmlns="http://www.w3.org/2000/svg" width="28.296" height="30" viewBox="0 0 28.296 30">
  <g id="sheep" transform="translate(-11.7)">
    <g id="Group_32" data-name="Group 32" transform="translate(11.7 0)">
      <g id="Group_31" data-name="Group 31" transform="translate(0 0)">
        <path id="Path_29" data-name="Path 29" d="M39.127,8.154A4.17,4.17,0,0,0,37,6.7a4.168,4.168,0,0,0-5.674-4.736A3.367,3.367,0,0,0,28.278.006a3.32,3.32,0,0,0-2.417,1.06A3.32,3.32,0,0,0,23.42,0a3.367,3.367,0,0,0-3.047,1.957A4.171,4.171,0,0,0,14.7,6.693,4.171,4.171,0,0,0,13.324,14V14a4.171,4.171,0,0,0,4.229,6,4.171,4.171,0,0,0,1.474,2.184l.757,6.647H14.542a.583.583,0,1,0,0,1.165H37.167a.583.583,0,1,0,0-1.165H31.924l.757-6.652A4.177,4.177,0,0,0,34.144,20a4.012,4.012,0,0,0,.489.029A4.171,4.171,0,0,0,38.373,14,4.171,4.171,0,0,0,39.127,8.154ZM23.28,28.835l.379-5.19a3.285,3.285,0,0,0,4.416,0l.379,5.2ZM37.353,13.316a.583.583,0,0,0-.22.794c.009.015.018.031.028.045a3.006,3.006,0,0,1-3.274,4.6.582.582,0,0,0-.734.5,3,3,0,0,1-1.328,2.155.583.583,0,0,0-.25.414l-.8,7.014H29.612l-.489-6.775a.583.583,0,0,0-.315-.478l-.1-.047a.583.583,0,0,0-.827.326,2.132,2.132,0,0,1-4.078,0,.583.583,0,0,0-.344-.332.647.647,0,0,0-.5,0l-.076.035a.583.583,0,0,0-.315.478l-.489,6.775H20.92L20.152,21.8a.583.583,0,0,0-.25-.414,3,3,0,0,1-1.311-2.132.583.583,0,0,0-.734-.5,3.006,3.006,0,0,1-3.274-4.6.583.583,0,0,0-.147-.811l-.045-.028a3.006,3.006,0,0,1,1.118-5.6V7.713a.583.583,0,0,0,.449-.792A3.006,3.006,0,0,1,20.373,3.28a.582.582,0,0,0,.885-.373,2.179,2.179,0,0,1,4.078-.583.583.583,0,0,0,1.031,0,2.179,2.179,0,0,1,4.078.583.583.583,0,0,0,.885.373A3.006,3.006,0,0,1,35.763,6.92a.582.582,0,0,0,.472.792,3.006,3.006,0,0,1,1.118,5.6Z" transform="translate(-11.7 0)" fill="#2240aa"/>
      </g>
    </g>
    <g id="Group_34" data-name="Group 34" transform="translate(16.762 5.387)">
      <g id="Group_33" data-name="Group 33" transform="translate(0)">
        <path id="Path_30" data-name="Path 30" d="M98.848,78.091a3.815,3.815,0,0,0-2.33-1.357A5.242,5.242,0,0,0,97.1,74.6a.577.577,0,0,0-.588-.588,4.788,4.788,0,0,0-3.029,1.2,6.1,6.1,0,0,0-.734.816,5.388,5.388,0,0,0-2.458-.5h-.052a5.348,5.348,0,0,0-2.458.5,6.043,6.043,0,0,0-.7-.839,4.789,4.789,0,0,0-3.029-1.2.518.518,0,0,0-.419.169.583.583,0,0,0-.169.419,5.243,5.243,0,0,0,.583,2.161A3.757,3.757,0,0,0,81.8,78.068a2.989,2.989,0,0,0-.553,2.126,2.234,2.234,0,1,0,4.468-.006.583.583,0,1,0-1.165,0,1.078,1.078,0,1,1-2.15,0,.663.663,0,0,0,0-.1,1.782,1.782,0,0,1,.35-1.311,3.058,3.058,0,0,1,2.085-1,5.173,5.173,0,0,0,1.48,1v5a3.909,3.909,0,0,0,3.641,3.8.7.7,0,0,0,.2,0h.262a.58.58,0,0,0,.151,0,3.909,3.909,0,0,0,3.641-3.8V78.784a5.19,5.19,0,0,0,1.5-1.014,3.134,3.134,0,0,1,2.19,1,1.783,1.783,0,0,1,.344,1.287.584.584,0,0,0,0,.111,1.078,1.078,0,1,1-2.15,0,.583.583,0,0,0-1.165,0,2.243,2.243,0,0,0,4.48.047A2.988,2.988,0,0,0,98.848,78.091Zm-3.8-1.3a3.641,3.641,0,0,1-1.555.979.583.583,0,0,0-.449.583v5.417a2.75,2.75,0,0,1-2.662,2.645h-.233a2.75,2.75,0,0,1-2.662-2.645V78.353a.583.583,0,0,0-.449-.583,3.641,3.641,0,0,1-1.555-1,3.122,3.122,0,0,1-.769-1.538,3.122,3.122,0,0,1,1.526.786,4.5,4.5,0,0,1,.81,1.072.582.582,0,0,0,.845.216,3.955,3.955,0,0,1,2.33-.583h.093a3.944,3.944,0,0,1,2.33.583.583.583,0,0,0,.845-.216,4.5,4.5,0,0,1,.781-1.072,3.122,3.122,0,0,1,1.538-.769A3.128,3.128,0,0,1,95.05,76.792Z" transform="translate(-81.222 -73.983)" fill="#2240aa"/>
      </g>
    </g>
  </g>
</svg>
