<svg id="rejected" xmlns="http://www.w3.org/2000/svg" width="47.573" height="47.458" viewBox="0 0 47.573 47.458">
  <path id="Path_5360" data-name="Path 5360" d="M63.311,49.09H43.562a1.94,1.94,0,0,0-1.937,1.938v6.884a1.939,1.939,0,0,0,1.937,1.937H63.311a1.939,1.939,0,0,0,1.937-1.937V51.028A1.94,1.94,0,0,0,63.311,49.09Zm.532,8.822a.533.533,0,0,1-.532.534H43.562a.534.534,0,0,1-.532-.534V51.028a.534.534,0,0,1,.532-.534H63.311a.533.533,0,0,1,.532.534Zm0,0" transform="translate(-37.757 -44.529)" fill="#ee4d9b"/>
  <path id="Path_5361" data-name="Path 5361" d="M91.079,80.563H74.917a.7.7,0,1,0,0,1.4H91.079a.7.7,0,0,0,0-1.4Zm0,0" transform="translate(-67.319 -73.077)" fill="#009edb"/>
  <path id="Path_5362" data-name="Path 5362" d="M176.276,118.3h-2.629a.7.7,0,0,0,0,1.4h2.629a.7.7,0,0,0,0-1.4Zm0,0" transform="translate(-156.876 -107.309)" fill="#009edb"/>
  <path id="Path_5363" data-name="Path 5363" d="M81.282,118.3H74.917a.7.7,0,1,0,0,1.4h6.365a.7.7,0,0,0,0-1.4Zm0,0" transform="translate(-67.319 -107.309)" fill="#009edb"/>
  <path id="Path_5364" data-name="Path 5364" d="M91.079,228.953H74.917a.7.7,0,1,0,0,1.4H91.079a.7.7,0,0,0,0-1.4Zm0,0" transform="translate(-67.319 -207.68)" fill="#009edb"/>
  <path id="Path_5365" data-name="Path 5365" d="M79.524,266.7H74.917a.7.7,0,1,0,0,1.4h4.607a.7.7,0,0,0,0-1.4Zm0,0" transform="translate(-67.319 -241.915)" fill="#009edb"/>
  <path id="Path_5366" data-name="Path 5366" d="M74.917,378.748H86.485a.7.7,0,0,0,0-1.4H74.917a.7.7,0,1,0,0,1.4Zm0,0" transform="translate(-67.319 -342.282)" fill="#009edb"/>
  <path id="Path_5367" data-name="Path 5367" d="M80.534,415.086H74.917a.7.7,0,1,0,0,1.4h5.616a.7.7,0,0,0,0-1.4Zm0,0" transform="translate(-67.319 -376.518)" fill="#009edb"/>
  <path id="Path_5368" data-name="Path 5368" d="M169.9,415.086h-4.31a.7.7,0,1,0,0,1.4h4.31a.7.7,0,0,0,0-1.4Zm0,0" transform="translate(-149.562 -376.518)" fill="#009edb"/>
  <path id="Path_5369" data-name="Path 5369" d="M43.154,24.234a13.293,13.293,0,0,0-11.8-3.086V2.258A2.261,2.261,0,0,0,29.1,0H2.259A2.261,2.261,0,0,0,0,2.258V45.2a2.26,2.26,0,0,0,2.259,2.258H29.1a2.248,2.248,0,0,0,1.449-.526A13.361,13.361,0,0,0,38.96,46.6a.7.7,0,1,0-.494-1.314,11.91,11.91,0,1,1,2.356-1.2.7.7,0,1,0,.774,1.171A13.321,13.321,0,0,0,43.154,24.234Zm-20,17.259H5.8a.534.534,0,0,1-.532-.534V34.075a.534.534,0,0,1,.532-.534H20.957A13.33,13.33,0,0,0,23.156,41.493Zm2.93-17.862A13.383,13.383,0,0,0,22.6,27.7H5.8a.534.534,0,0,1-.532-.534V20.287a.534.534,0,0,1,.532-.534H25.554a.533.533,0,0,1,.532.534Zm3.868-2.088a13.187,13.187,0,0,0-2.464,1.133V20.287a1.94,1.94,0,0,0-1.937-1.938H5.8a1.94,1.94,0,0,0-1.937,1.938v6.884A1.94,1.94,0,0,0,5.8,29.109H21.931a13.235,13.235,0,0,0-.836,3.029H5.8a1.94,1.94,0,0,0-1.937,1.937v6.884A1.94,1.94,0,0,0,5.8,42.9H24.228a13.337,13.337,0,0,0,4.08,3.157H2.259A.855.855,0,0,1,1.4,45.2V2.258A.855.855,0,0,1,2.259,1.4H29.1a.855.855,0,0,1,.855.854Zm0,0" fill="#ee4d9b"/>
  <path id="Path_5370" data-name="Path 5370" d="M278.15,276a10.038,10.038,0,1,0-17.454-5.676A10.032,10.032,0,0,0,278.15,276Zm-6.585,1.887a8.634,8.634,0,1,1,7.752-8.582A8.634,8.634,0,0,1,271.565,277.886Zm0,0" transform="translate(-236.421 -235.155)" fill="#009edb"/>
  <path id="Path_5372" data-name="Path 5372" d="M27.49,34.135l4.955,4.955L40.733,30.8" fill="none" stroke="#009edb" stroke-linecap="round" stroke-width="1.5"/>
</svg>
