<svg xmlns="http://www.w3.org/2000/svg" width="37.001" height="33.099" viewBox="0 0 37.001 33.099">
  <g id="XMLID_774_" transform="translate(0 -27)">
    <g id="XMLID_2301_" transform="translate(2.767 41.024)">
      <path id="XMLID_3851_" d="M65.569,237.926H41.021l-2.737-16.872H68.306Z" transform="translate(-38.284 -221.054)" fill="#80b4ff"/>
    </g>
    <g id="XMLID_2302_" transform="translate(0.723 35.155)">
      <path id="XMLID_3845_" d="M10,139.849H44.11v5.868H10Z" transform="translate(-10 -139.849)" fill="#b3d3ff"/>
    </g>
    <g id="XMLID_2009_" transform="translate(15.671 27.723)">
      <g id="XMLID_2010_">
        <path id="Path_16822" data-name="Path 16822" d="M217.438,49.71a2.017,2.017,0,0,0,3.444-1.426V39.017a2.017,2.017,0,1,0-4.035,0v9.267A2.011,2.011,0,0,0,217.438,49.71Z" transform="translate(-216.847 -37)" fill="#fff"/>
      </g>
    </g>
    <g id="XMLID_2159_" transform="translate(23.126 46.223)">
      <circle id="XMLID_3838_" cx="6.5" cy="6.5" r="6.5" transform="translate(-0.126 -0.125)" fill="#ffce69"/>
    </g>
    <g id="XMLID_2072_" transform="translate(0 27)">
      <path id="XMLID_2107_" d="M145.17,289a.723.723,0,0,0-.723.723v5.606a.723.723,0,1,0,1.445,0v-5.606A.723.723,0,0,0,145.17,289Z" transform="translate(-134.008 -270.066)"/>
      <path id="XMLID_2190_" d="M236.723,289a.723.723,0,0,0-.723.723v5.606a.723.723,0,1,0,1.445,0v-5.606A.723.723,0,0,0,236.723,289Z" transform="translate(-218.945 -270.066)"/>
      <path id="XMLID_2193_" d="M32.636,46.477l.767-4.73h1.429a.723.723,0,0,0,.723-.723V35.155a.723.723,0,0,0-.723-.723H30.714a.723.723,0,1,0,0,1.445h3.4V40.3H20.1a2.723,2.723,0,0,0,.326-1.295V35.878H24.21a.723.723,0,0,0,0-1.445H20.428V29.74a2.74,2.74,0,1,0-5.48,0v4.693H.723A.723.723,0,0,0,0,35.155v5.868a.723.723,0,0,0,.723.723H2.152L4.791,58.011a.723.723,0,0,0,.713.607H25.591a7.081,7.081,0,1,0,7.046-12.142ZM16.394,29.74a1.295,1.295,0,1,1,2.589,0v9.266a1.295,1.295,0,0,1-2.589,0ZM1.445,35.878h13.5v3.128a2.727,2.727,0,0,0,.324,1.295H1.445Zm2.171,5.868H31.94l-.7,4.312a7.073,7.073,0,0,0-6.123,1.757V46.657a.723.723,0,0,0-1.445,0v3.027a7.068,7.068,0,0,0,.517,7.489H6.119Zm26.3,16.907a5.637,5.637,0,1,1,5.637-5.637A5.643,5.643,0,0,1,29.919,58.653Z" transform="translate(0 -27)"/>
      <path id="XMLID_2203_" d="M375.637,345.457H373.9v-1.734a.723.723,0,1,0-1.445,0v1.734h-1.734a.723.723,0,1,0,0,1.445h1.734v1.734a.723.723,0,1,0,1.445,0V346.9h1.734a.723.723,0,1,0,0-1.445Z" transform="translate(-343.261 -320.163)"/>
      <path id="XMLID_2204_" d="M370.723,131.3a.723.723,0,1,0-.511-.212A.728.728,0,0,0,370.723,131.3Z" transform="translate(-343.261 -122.417)"/>
    </g>
  </g>
</svg>
