<svg xmlns="http://www.w3.org/2000/svg" width="50.535" height="45.881" viewBox="0 0 50.535 45.881">
  <g id="Group_9245" data-name="Group 9245" transform="translate(-75.556 -277.237)">
    <g id="Group_9159" data-name="Group 9159" transform="translate(75.556 277.237)">
      <path id="Path_16522" data-name="Path 16522" d="M156.3,644.165c.038,1.157,1.993.84,2.578,3.314a5.684,5.684,0,0,1-.878,3.739,2.09,2.09,0,0,0,.227,2.464c1.812,2.039,3.966,4.872,5.155,6.118s.865,2.946.4,5.325-7.611,16.428-10.276,17.561-5.095-2.833-6.983-2.833-11.432-1.359-12.325-1.246-5.2.453-6.558-3.172-5.891-6.653-5.1-9.841a15.381,15.381,0,0,0,.524-5.879c-.3-1.678-1.364-2.887-1.43-3.728-.178-2.255,2.107-2.946,3.64-4.416a16.17,16.17,0,0,0,3.611-5.438c.793-2.155,3.512.289,6.345,2.163s1.473,1.76,5.438.967-1.133-2.443,1.813-3.714,5.438-2.166,7.364-1.775S156.218,641.557,156.3,644.165Z" transform="translate(-117.459 -640.048)" fill="#4c2910"/>
      <g id="Group_9140" data-name="Group 9140" transform="translate(23.254 1.842)">
        <path id="Path_16523" data-name="Path 16523" d="M211.132,642.654a2.172,2.172,0,0,0-.277.017c-1.6.2-1.244,2.011-1.244,2.011s-1.379-1.584-2.593-1.584a1.268,1.268,0,0,0-.249.024c-1.266.25-1.243,2.583-1.243,2.583a3.637,3.637,0,0,1,1.317-.237,3.842,3.842,0,0,1,3.5,2.465s-.164-3.73,3.447-3.81A4.012,4.012,0,0,0,211.132,642.654Z" transform="translate(-204.505 -641.634)" fill="#a79189"/>
        <path id="Path_16524" data-name="Path 16524" d="M211.345,640.25a4.929,4.929,0,0,0-3.45-1.85,3.233,3.233,0,0,0-.406.026,2.362,2.362,0,0,0-1.685.954c-.033.046-.065.093-.093.14a3.613,3.613,0,0,0-1.93-.676,2.313,2.313,0,0,0-.447.043c-2.038.4-2.069,3.267-2.066,3.593a1.012,1.012,0,0,0,1.01,1.016,1,1,0,0,0,.409-.088,2.729,2.729,0,0,1,.917-.156,2.906,2.906,0,0,1,2.586,1.9,1.02,1.02,0,0,0,1.929-.5,3.284,3.284,0,0,1,.716-2.091,2.33,2.33,0,0,1,1.735-.655,1.02,1.02,0,0,0,.773-1.657ZM207.1,644.7a3.842,3.842,0,0,0-3.5-2.465,3.63,3.63,0,0,0-1.317.237s-.023-2.333,1.243-2.583a1.278,1.278,0,0,1,.249-.024c1.214,0,2.593,1.584,2.593,1.584s-.361-1.807,1.244-2.011a2.178,2.178,0,0,1,.277-.018,4.009,4.009,0,0,1,2.654,1.468C206.938,640.967,207.1,644.7,207.1,644.7Z" transform="translate(-201.268 -638.4)" fill="#4c2910"/>
      </g>
      <g id="Group_9141" data-name="Group 9141" transform="translate(34.175 0.814)">
        <path id="Path_16525" data-name="Path 16525" d="M251.086,641.96l7.874-1.3.789-2.293-8.324,1.934Z" transform="translate(-250.066 -637.344)" fill="#a79189"/>
        <path id="Path_16526" data-name="Path 16526" d="M257.272,634.447a1.02,1.02,0,0,0-.988-.31l-8.324,1.933a1.019,1.019,0,0,0-.768.789l-.339,1.662a1.018,1.018,0,0,0,1.165,1.21l7.874-1.3a1.019,1.019,0,0,0,.8-.674l.789-2.293A1.02,1.02,0,0,0,257.272,634.447Zm-.757.683-.789,2.293-7.874,1.3.34-1.662Z" transform="translate(-246.832 -634.11)" fill="#4c2910"/>
      </g>
      <g id="Group_9142" data-name="Group 9142" transform="translate(17.784 10.034)">
        <path id="Path_16527" data-name="Path 16527" d="M268.158,700.3a2.5,2.5,0,0,0,.3,2.208,2.5,2.5,0,0,0-.3-2.208Z" transform="translate(-246.553 -693.653)" fill="none"/>
        <path id="Path_16528" data-name="Path 16528" d="M201.51,676.831a5.05,5.05,0,0,0-1.14.132c-3.136.725-5.616,3.864-4.254,7.37a4.9,4.9,0,0,0,4.791,3.478,8.645,8.645,0,0,0,3.059-.627,4.555,4.555,0,0,1-3.639,1.759,8.564,8.564,0,0,1-4.472-1.578,18.1,18.1,0,0,1-10.561,3.183,16.463,16.463,0,0,1-2.6-.179l6.178,5.266a11.2,11.2,0,0,0,7.671-5.807,9.464,9.464,0,0,0,4.131.99,7.294,7.294,0,0,0,3.244-.734c3.645-1.79,3.556-6.479,2.961-8.661C206.21,678.949,204.124,676.831,201.51,676.831Zm2.231,8.948a.761.761,0,0,1-.1.007c-.666,0-1.313-.886-1.473-2.053-.168-1.226.264-2.3.965-2.394a.764.764,0,0,1,.1-.007c.667,0,1.313.886,1.473,2.053C204.874,684.611,204.442,685.683,203.741,685.779Z" transform="translate(-181.68 -675.812)" fill="#a79189"/>
        <path id="Path_16529" data-name="Path 16529" d="M266.345,697.662c-.16-1.167-.806-2.053-1.473-2.053a.775.775,0,0,0-.1.007c-.7.1-1.133,1.168-.965,2.394.16,1.167.806,2.053,1.473,2.053a.771.771,0,0,0,.1-.007C266.082,699.96,266.513,698.888,266.345,697.662Zm-1.421-.929a2.5,2.5,0,0,1,.3,2.208,2.5,2.5,0,0,1-.3-2.208Z" transform="translate(-243.319 -690.089)" fill="#4c2910"/>
        <path id="Path_16530" data-name="Path 16530" d="M204.634,677.92a6.877,6.877,0,0,0-6.358-5.342,6.083,6.083,0,0,0-1.369.158,7.2,7.2,0,0,0-4.714,3.55,6.16,6.16,0,0,0-.261,5.183,7.664,7.664,0,0,0,.88,1.661,1.02,1.02,0,0,0-.789.176,16.984,16.984,0,0,1-9.962,2.989,15.487,15.487,0,0,1-2.417-.164,1.02,1.02,0,0,0-.839,1.78l6.178,5.266a1.02,1.02,0,0,0,.662.244,1.008,1.008,0,0,0,.208-.021,12.239,12.239,0,0,0,7.9-5.5,10.548,10.548,0,0,0,3.691.7,8.3,8.3,0,0,0,3.693-.839C205.137,685.8,205.42,680.8,204.634,677.92Zm-7.189,9.664a9.463,9.463,0,0,1-4.131-.99,11.2,11.2,0,0,1-7.671,5.807l-6.178-5.266a16.464,16.464,0,0,0,2.6.179,18.1,18.1,0,0,0,10.561-3.183,8.564,8.564,0,0,0,4.472,1.578,4.555,4.555,0,0,0,3.639-1.759,8.645,8.645,0,0,1-3.059.627,4.9,4.9,0,0,1-4.791-3.478c-1.362-3.506,1.118-6.645,4.254-7.37a5.05,5.05,0,0,1,1.14-.132c2.615,0,4.7,2.118,5.374,4.591.595,2.182.684,6.871-2.961,8.661A7.291,7.291,0,0,1,197.445,687.584Z" transform="translate(-178.446 -672.578)" fill="#4c2910"/>
      </g>
      <g id="Group_9143" data-name="Group 9143" transform="translate(6.951 5.82)">
        <path id="Path_16531" data-name="Path 16531" d="M194.481,679.249a.94.94,0,0,0,.219.03.238.238,0,0,0,.225-.1,1.571,1.571,0,0,0,.087-1.239,8.014,8.014,0,0,0-2.785-4.145l-.01-.006c.265.686.483,1.426.7,2.149C193.305,677.27,193.843,679.094,194.481,679.249Z" transform="translate(-178.082 -669.285)" fill="none"/>
        <path id="Path_16532" data-name="Path 16532" d="M168.134,677.27a2.022,2.022,0,0,0,.267,1.131,2.113,2.113,0,0,0,.839.925,2.021,2.021,0,0,0-.267-1.13A2.116,2.116,0,0,0,168.134,677.27Z" transform="translate(-159.766 -671.932)" fill="none"/>
        <path id="Path_16533" data-name="Path 16533" d="M151.167,661.88a8.976,8.976,0,0,1,3.225,4.735c.345,1.243-.069,2.631-1.294,2.631a1.942,1.942,0,0,1-.46-.059c-1.843-.448-2.131-4.47-3.3-6.821a6.392,6.392,0,0,0-5.807-3.114,7.8,7.8,0,0,0-1.474.14c-2.943.566-4.576,2.87-4.561,5.929.007,1.61.684,5.4,5.678,6.084a6.059,6.059,0,0,0,.828.058c3.657,0,4.866-3.579,4.866-3.579.156,1.442,1.246,3.277,3.141,3.277l.1,0a6.1,6.1,0,0,0,5.605-4.266c.854-2.951-1.059-7.083-1.059-7.083Zm-4.725,4.724a.838.838,0,0,1-.367.081,2.494,2.494,0,0,1-1.864-1.514c-.574-1.108-.507-2.261.151-2.578a.841.841,0,0,1,.367-.081,2.5,2.5,0,0,1,1.864,1.514C147.168,665.134,147.1,666.288,146.442,666.6Z" transform="translate(-136.481 -658.233)" fill="#a79189"/>
        <path id="Path_16534" data-name="Path 16534" d="M166.644,674.369a2.5,2.5,0,0,0-1.864-1.514.839.839,0,0,0-.367.081c-.658.316-.725,1.47-.151,2.578a2.5,2.5,0,0,0,1.864,1.514.839.839,0,0,0,.367-.081C167.151,676.63,167.218,675.476,166.644,674.369Zm-.638,1.6a2.113,2.113,0,0,1-.839-.925,2.021,2.021,0,0,1-.267-1.131,2.115,2.115,0,0,1,.839.925A2.021,2.021,0,0,1,166.006,675.968Z" transform="translate(-156.531 -668.575)" fill="#4c2910"/>
        <path id="Path_16535" data-name="Path 16535" d="M154.35,656.147a1.019,1.019,0,0,0-1.285-.526l-5.491,2.07a1.02,1.02,0,0,0-.649.8A7.434,7.434,0,0,0,140.3,655a8.847,8.847,0,0,0-1.667.158c-3.34.643-5.405,3.3-5.388,6.935.014,2.993,1.744,6.427,6.559,7.089a7.117,7.117,0,0,0,.967.068,5.857,5.857,0,0,0,4.582-2.149l.072-.086a3.961,3.961,0,0,0,3.353,1.933l.135,0a7.11,7.11,0,0,0,6.55-5C156.412,660.661,154.434,656.329,154.35,656.147Zm.134,7.511a6.1,6.1,0,0,1-5.605,4.266l-.1,0c-1.894,0-2.984-1.835-3.141-3.277,0,0-1.209,3.579-4.866,3.579a6.088,6.088,0,0,1-.828-.058c-4.994-.687-5.671-4.474-5.678-6.084-.014-3.059,1.618-5.362,4.561-5.929a7.79,7.79,0,0,1,1.474-.14,6.392,6.392,0,0,1,5.807,3.114c1.165,2.351,1.453,6.373,3.3,6.821a1.942,1.942,0,0,0,.46.059c1.225,0,1.639-1.388,1.294-2.631a8.976,8.976,0,0,0-3.225-4.735l5.492-2.07S155.338,660.707,154.484,663.658Zm-7.093-4.15a8.012,8.012,0,0,1,2.785,4.145,1.571,1.571,0,0,1-.087,1.239.238.238,0,0,1-.225.1.937.937,0,0,1-.219-.03c-.638-.155-1.175-1.979-1.568-3.31-.213-.723-.431-1.464-.7-2.149Z" transform="translate(-133.247 -654.998)" fill="#4c2910"/>
      </g>
      <g id="Group_9144" data-name="Group 9144" transform="translate(39.587 24.526)">
        <path id="Path_16536" data-name="Path 16536" d="M274.64,744.905c-.275,3.142-.973,9.141-.973,9.141,3.376-1.26,4.6-4.887,4.826-7.04s.492-9.713.492-9.713c-1.535,1.593-4.794,1.593-4.794,1.593S275.044,740.3,274.64,744.905Z" transform="translate(-272.647 -736.274)" fill="#a79189"/>
        <path id="Path_16537" data-name="Path 16537" d="M276.146,733.12a1.02,1.02,0,0,0-1.132.231c-1.013,1.051-3.274,1.281-4.06,1.281a1.023,1.023,0,0,0-.922.519.968.968,0,0,0,.039,1.012c.073.161.652,1.589.317,5.417-.271,3.091-.964,9.052-.971,9.112a1.02,1.02,0,0,0,1.37,1.073,7.965,7.965,0,0,0,4.124-3.638,11.339,11.339,0,0,0,1.359-4.25c.227-2.163.486-9.474.5-9.784A1.018,1.018,0,0,0,276.146,733.12Zm-4.742,8.55c.4-4.6-.449-6.018-.449-6.018s3.258,0,4.794-1.593c0,0-.265,7.56-.492,9.712s-1.45,5.78-4.826,7.04C270.431,750.811,271.129,744.812,271.4,741.67Z" transform="translate(-269.411 -733.039)" fill="#4c2910"/>
      </g>
      <g id="Group_9145" data-name="Group 9145" transform="translate(27.388 26.176)">
        <path id="Path_16538" data-name="Path 16538" d="M245.593,776.71a2.232,2.232,0,0,0,.266.721,8.661,8.661,0,0,0,.468-4.311c-.1-.8-.265-1.781-.477-2.8a37.377,37.377,0,0,0-.469,4.606A11.314,11.314,0,0,0,245.593,776.71Z" transform="translate(-238.938 -763.035)" fill="none"/>
        <path id="Path_16539" data-name="Path 16539" d="M244.745,759.3h0Z" transform="translate(-238.458 -754.658)" fill="#a79189"/>
        <path id="Path_16540" data-name="Path 16540" d="M243.257,766.593c.044.757.175,3.063,1.042,3.063.039,0,.121,0,.248-.149.635-.733.879-3.144.671-4.811a39.91,39.91,0,0,0-1.1-5.374.528.528,0,0,1-.017.128A64.829,64.829,0,0,0,243.257,766.593Zm.978-4.635c.212,1.02.378,2,.477,2.8a8.66,8.66,0,0,1-.468,4.311,2.232,2.232,0,0,1-.266-.721,11.318,11.318,0,0,1-.212-1.784A37.385,37.385,0,0,1,244.235,761.958Z" transform="translate(-237.322 -754.673)" fill="#4c2910"/>
        <path id="Path_16541" data-name="Path 16541" d="M231.8,740.923a1.02,1.02,0,0,0-.982-.992c-.116,0-.234-.006-.349-.006a9.019,9.019,0,0,0-5.885,2.148,1.019,1.019,0,0,0-.256,1.089c.038.1.076.213.114.323-1.6-.243-4.724-.705-4.759-.711a1.051,1.051,0,0,0-.149-.011,1.02,1.02,0,0,0-1.019,1.063c.007.166.178,4.1.587,6.593.418,2.56,1.042,5.376,2.5,6.854a5.616,5.616,0,0,0,3.94,1.346,6.568,6.568,0,0,0,3.509-.927c2.378-1.527,2.763-5.213,2.846-7.853C231.967,747.446,231.806,741.188,231.8,740.923ZM225.537,757.6a4.67,4.67,0,0,1-3.213-1.041c-1.213-1.233-1.814-3.839-2.217-6.3s-.574-6.472-.574-6.472,3.962.586,5.268.789h0a65.042,65.042,0,0,0-.862,7.3c.085,1.474.294,3.544,1.551,3.544h.02c1.275-.023,1.666-3.434,1.405-5.533a37.333,37.333,0,0,0-1.63-7.073,8,8,0,0,1,5.183-1.868c.1,0,.207,0,.312.006,0,0,.168,6.466.093,8.858-.093,2.957-.582,5.873-2.378,7.026A5.6,5.6,0,0,1,225.537,757.6Zm-.244-12.9a.528.528,0,0,0,.017-.128,39.919,39.919,0,0,1,1.1,5.374c.207,1.667-.036,4.079-.671,4.811-.128.147-.21.148-.248.149-.866,0-1-2.306-1.042-3.063A64.935,64.935,0,0,1,225.294,744.7Z" transform="translate(-218.513 -739.924)" fill="#4c2910"/>
      </g>
      <g id="Group_9147" data-name="Group 9147" transform="translate(6.433 27.196)">
        <path id="Path_16542" data-name="Path 16542" d="M168.187,770.733a2.5,2.5,0,0,0,.3,2.207,2.5,2.5,0,0,0-.3-2.207Z" transform="translate(-159.192 -764.368)" fill="none"/>
        <path id="Path_16543" data-name="Path 16543" d="M186.662,781.159c0,.23-.009.463-.022.7a13.362,13.362,0,0,0,1.768.539A11.8,11.8,0,0,1,186.662,781.159Z" transform="translate(-173.325 -772.296)" fill="none"/>
        <path id="Path_16544" data-name="Path 16544" d="M166.517,768.172l-.032,0c-.312.043-.672.773-.529,1.82.137,1,.656,1.613.968,1.613l.032,0c.312-.043.673-.773.529-1.82C167.347,768.786,166.828,768.172,166.517,768.172Zm.355,2.821a2.5,2.5,0,0,1-.3-2.208,2.5,2.5,0,0,1,.3,2.208Z" transform="translate(-157.573 -762.421)" fill="#4c2910"/>
        <path id="Path_16545" data-name="Path 16545" d="M164.9,766.045a.75.75,0,0,0-.1.007c-.7.1-1.133,1.168-.965,2.394.16,1.167.806,2.053,1.473,2.053a.758.758,0,0,0,.1-.007c.7-.1,1.133-1.168.965-2.394C166.215,766.931,165.569,766.045,164.9,766.045Zm.439,3.943-.032,0c-.312,0-.831-.614-.968-1.613-.143-1.047.217-1.777.529-1.82l.032,0c.312,0,.83.614.968,1.613C166.014,769.215,165.653,769.945,165.341,769.988Z" transform="translate(-155.959 -760.804)" fill="#4c2910"/>
        <g id="Group_9146" data-name="Group 9146">
          <path id="Path_16546" data-name="Path 16546" d="M186.662,781.159c0,.23-.009.463-.022.7a13.362,13.362,0,0,0,1.768.539A11.8,11.8,0,0,1,186.662,781.159Z" transform="translate(-173.325 -772.296)" fill="none"/>
          <path id="Path_16547" data-name="Path 16547" d="M148.444,748.625l-1.238,5.845c2.65,3.507,8.738,4.426,8.738,4.426a20.145,20.145,0,0,1-2.793.2,15.806,15.806,0,0,1-6.59-1.323,11.4,11.4,0,0,0-.351-4.538,6.462,6.462,0,0,0-2.7-3.63,7.063,7.063,0,0,1-3.015,2.551c-1.357.594-3.395,1.26-5.151,2.136a4.8,4.8,0,0,0,1.256,3,6.561,6.561,0,0,0,5.056,2.312,6.314,6.314,0,0,0,1.752-.227c-2.167,1.788-2.974,1.805-5.566,2.57a6.883,6.883,0,0,0,4.863,3.277,9.669,9.669,0,0,0,3.586-5.849,14.311,14.311,0,0,0,6.157,1.184,28.268,28.268,0,0,0,5.1-.5c-.192-.673-.351-1.391-.489-2.115C151.918,754.836,148.444,748.625,148.444,748.625Z" transform="translate(-134.322 -747.559)" fill="none"/>
          <path id="Path_16548" data-name="Path 16548" d="M234.014,744.185c-.105,0-.209-.006-.312-.006a8,8,0,0,0-5.183,1.868,37.335,37.335,0,0,1,1.63,7.073c.261,2.1-.13,5.51-1.405,5.533h-.02c-1.257,0-1.466-2.07-1.551-3.544a64.944,64.944,0,0,1,.862-7.3c-1.305-.2-5.268-.789-5.268-.789s.158,3.707.529,6.184a13.568,13.568,0,0,0,2.235,1.263,1.02,1.02,0,0,1,.607,1l-.072,1.065a1.02,1.02,0,0,1-.767.919c-.04.01-.389.1-.961.209a6.012,6.012,0,0,0,1.22,2.133,4.67,4.67,0,0,0,3.213,1.041,5.6,5.6,0,0,0,2.958-.765c1.8-1.153,2.285-4.069,2.378-7.026C234.181,750.651,234.014,744.185,234.014,744.185Z" transform="translate(-200.792 -744.179)" fill="#a79189"/>
          <path id="Path_16549" data-name="Path 16549" d="M227.471,789.413l.072-1.065a13.892,13.892,0,0,1-1.59-.831c.138.724.3,1.442.489,2.115C227.089,789.51,227.471,789.413,227.471,789.413Z" transform="translate(-203.216 -777.13)" fill="#a79189"/>
          <path id="Path_16550" data-name="Path 16550" d="M155.825,754.61a13.6,13.6,0,0,1-2.235-1.263,29.112,29.112,0,0,1-7.491-8.454,1.021,1.021,0,0,0-.889-.521,1.047,1.047,0,0,0-.154.012,1.02,1.02,0,0,0-.844.8l-.714,3.373a7.153,7.153,0,0,0-2.691-3.053,1.019,1.019,0,0,0-1.389.313,6.013,6.013,0,0,1-2.569,2.172c-.486.212-1.081.442-1.712.685-1.1.423-2.342.9-3.486,1.473a1.019,1.019,0,0,0-.563.955,5.854,5.854,0,0,0,1.509,3.634,7.571,7.571,0,0,0,3.81,2.4c-.3.095-.634.188-1.014.294-.318.089-.678.191-1.076.308a1.02,1.02,0,0,0-.6,1.48,7.891,7.891,0,0,0,5.64,3.789.969.969,0,0,0,.111.006,1.021,1.021,0,0,0,.586-.185,10.191,10.191,0,0,0,3.676-5.3,16.577,16.577,0,0,0,5.482.82,29.231,29.231,0,0,0,5.42-.54c.572-.111.921-.2.961-.209a1.02,1.02,0,0,0,.767-.919l.072-1.065A1.019,1.019,0,0,0,155.825,754.61Zm-.482,2s-.383.1-1.029.219a28.282,28.282,0,0,1-5.1.5,14.307,14.307,0,0,1-6.157-1.184,9.669,9.669,0,0,1-3.586,5.849,6.884,6.884,0,0,1-4.863-3.277c2.592-.765,3.4-.782,5.566-2.57a6.32,6.32,0,0,1-1.752.227,6.561,6.561,0,0,1-5.056-2.312,4.8,4.8,0,0,1-1.256-3c1.756-.876,3.794-1.543,5.151-2.136a7.059,7.059,0,0,0,3.015-2.55,6.461,6.461,0,0,1,2.7,3.63,11.4,11.4,0,0,1,.351,4.538,15.808,15.808,0,0,0,6.59,1.323,20.134,20.134,0,0,0,2.793-.2s-6.088-.919-8.738-4.426l1.238-5.845s3.473,6.211,8.616,9.322a13.881,13.881,0,0,0,1.59.831Zm-10.94-2.724q.02-.351.022-.7a11.8,11.8,0,0,0,1.745,1.235A13.361,13.361,0,0,1,144.4,753.885Z" transform="translate(-131.087 -744.325)" fill="#4c2910"/>
        </g>
      </g>
      <g id="Group_9149" data-name="Group 9149" transform="translate(0 18.054)">
        <path id="Path_16551" data-name="Path 16551" d="M137.706,733.276c-.145.035-.68.223-.8,1.1a.525.525,0,0,0,.051.378.276.276,0,0,0,.2.071.628.628,0,0,0,.523-.324,1.327,1.327,0,0,0,.273-1.074A.33.33,0,0,0,137.706,733.276Z" transform="translate(-129.072 -726.747)" fill="none"/>
        <path id="Path_16552" data-name="Path 16552" d="M120.262,713.236c-.83-1.3-1.374-2.944-3.72-2.944a5.937,5.937,0,0,0-.7.044c-2.946.351-4.189,4.919-4.446,8.187s-.311,5.673-1.275,7.3-2.493,2.975-.964,3.747a3.334,3.334,0,0,0,1.331.463c.652,0,1.04-.639,1.333-2.58.434-2.88,5.891-4.362,8.61-5.552s4.657-4.3,3.4-6.228S121.168,714.652,120.262,713.236Zm-3.3,4.334a1.65,1.65,0,0,1-1.386.8,1.283,1.283,0,0,1-1.266-1.605,2.1,2.1,0,0,1,1.817-1.989.4.4,0,0,1,.054,0C117.488,714.948,117.805,716.239,116.966,717.57Z" transform="translate(-107.489 -709.272)" fill="#f15e43"/>
        <path id="Path_16553" data-name="Path 16553" d="M134.533,729a.431.431,0,0,0-.054,0,2.1,2.1,0,0,0-1.817,1.989,1.283,1.283,0,0,0,1.266,1.605,1.65,1.65,0,0,0,1.386-.8C136.154,730.46,135.837,729.169,134.533,729Zm-.6,2.571a.276.276,0,0,1-.2-.071.525.525,0,0,1-.051-.378c.119-.877.654-1.065.8-1.1a.331.331,0,0,1,.253.151,1.325,1.325,0,0,1-.273,1.075A.627.627,0,0,1,133.929,731.57Z" transform="translate(-125.838 -723.493)" fill="#4c2910"/>
        <g id="Group_9148" data-name="Group 9148">
          <path id="Path_16554" data-name="Path 16554" d="M123.838,715.676c-1.252-1.929-2.668-1.023-3.575-2.439-.83-1.3-1.374-2.944-3.72-2.944a5.961,5.961,0,0,0-.7.044c-2.946.351-4.189,4.919-4.446,8.187s-.311,5.673-1.275,7.3-2.493,2.975-.964,3.747a3.334,3.334,0,0,0,1.331.463c.652,0,1.04-.638,1.333-2.58.434-2.88,5.891-4.361,8.61-5.552S125.089,717.6,123.838,715.676Z" transform="translate(-107.489 -709.273)" fill="none"/>
          <path id="Path_16555" data-name="Path 16555" d="M164.9,766.045a.75.75,0,0,0-.1.007c-.7.1-1.133,1.168-.965,2.394.16,1.167.806,2.053,1.473,2.053a.758.758,0,0,0,.1-.007c.7-.1,1.133-1.168.965-2.394C166.215,766.931,165.569,766.045,164.9,766.045Z" transform="translate(-149.526 -751.662)" fill="none"/>
          <path id="Path_16556" data-name="Path 16556" d="M148.5,748.625l-1.238,5.845c2.65,3.507,8.738,4.426,8.738,4.426a20.145,20.145,0,0,1-2.793.2,15.806,15.806,0,0,1-6.59-1.323,11.4,11.4,0,0,0-.351-4.538,6.639,6.639,0,0,0-2.2-3.276,8.114,8.114,0,0,1-2.772,2.027c-.527.231-1.144.468-1.8.719a30.381,30.381,0,0,0-4.087,1.816,4.836,4.836,0,0,0,1.24,2.775,6.561,6.561,0,0,0,5.056,2.312,6.315,6.315,0,0,0,1.752-.227c-2.167,1.788-2.974,1.805-5.566,2.57a6.883,6.883,0,0,0,4.863,3.277,9.669,9.669,0,0,0,3.586-5.849,14.311,14.311,0,0,0,6.157,1.184,27.945,27.945,0,0,0,6.13-.717l.072-1.065C152.7,756.14,148.5,748.625,148.5,748.625Zm-4.671,8.623a.729.729,0,0,1-.1.007c-.666,0-1.313-.886-1.473-2.053-.168-1.226.264-2.3.965-2.394a.731.731,0,0,1,.1-.007c.667,0,1.313.886,1.473,2.053C144.958,756.08,144.525,757.152,143.824,757.248Z" transform="translate(-127.94 -738.417)" fill="#a79189"/>
          <path id="Path_16557" data-name="Path 16557" d="M121.451,711.884a4.172,4.172,0,0,0-2.62-1.876c-.546-.164-.746-.238-.951-.557-.114-.178-.224-.367-.341-.567-.7-1.2-1.66-2.846-4.238-2.846a6.947,6.947,0,0,0-.819.051c-3.443.41-5.017,4.98-5.342,9.119q-.049.617-.089,1.194c-.182,2.487-.325,4.45-1.047,5.67-.2.331-.426.662-.648.982-.671.964-1.3,1.874-1.051,2.877a2.044,2.044,0,0,0,1.153,1.317,4.113,4.113,0,0,0,1.79.573c1.822,0,2.16-2.243,2.341-3.448.125-.832.995-1.58,2.127-2.233a30.381,30.381,0,0,1,4.087-1.816c.653-.251,1.269-.489,1.8-.72a8.113,8.113,0,0,0,2.772-2.027,6.692,6.692,0,0,0,1.434-2.476A3.758,3.758,0,0,0,121.451,711.884Zm-4.26,6.784c-2.719,1.19-8.176,2.672-8.61,5.552-.292,1.942-.681,2.58-1.333,2.58a3.335,3.335,0,0,1-1.331-.463c-1.529-.772,0-2.117.964-3.747s1.019-4.035,1.275-7.3,1.5-7.836,4.446-8.187a5.884,5.884,0,0,1,.7-.044c2.346,0,2.89,1.647,3.72,2.944.906,1.416,2.322.51,3.575,2.439S119.91,717.478,117.191,718.668Z" transform="translate(-104.248 -706.037)" fill="#4c2910"/>
        </g>
      </g>
      <g id="Group_9150" data-name="Group 9150" transform="translate(35.957 5.618)">
        <path id="Path_16558" data-name="Path 16558" d="M257.788,655.57a2.3,2.3,0,1,0,2.1,2.29A2.2,2.2,0,0,0,257.788,655.57Z" transform="translate(-255.344 -655.23)" fill="#f15e43"/>
        <path id="Path_16559" data-name="Path 16559" d="M256.71,654.152a2.637,2.637,0,1,0,2.444,2.63A2.545,2.545,0,0,0,256.71,654.152Zm0,4.92a2.3,2.3,0,1,1,2.1-2.29A2.2,2.2,0,0,1,256.71,659.072Z" transform="translate(-254.266 -654.152)" fill="#4c2910"/>
      </g>
      <g id="Group_9151" data-name="Group 9151" transform="translate(31.497 6.45)">
        <ellipse id="Ellipse_58" data-name="Ellipse 58" cx="2.104" cy="2.29" rx="2.104" ry="2.29" transform="translate(0.34 0.34)" fill="#f15e43"/>
        <path id="Path_16560" data-name="Path 16560" d="M238.1,657.623a2.637,2.637,0,1,0,2.443,2.63A2.545,2.545,0,0,0,238.1,657.623Zm0,4.92a2.3,2.3,0,1,1,2.1-2.29A2.2,2.2,0,0,1,238.1,662.543Z" transform="translate(-235.66 -657.623)" fill="#4c2910"/>
      </g>
      <g id="Group_9152" data-name="Group 9152" transform="translate(11.164)">
        <path id="Path_16561" data-name="Path 16561" d="M157.184,634.969a2.3,2.3,0,1,0,2.1,2.29A2.2,2.2,0,0,0,157.184,634.969Z" transform="translate(-154.06 -633.949)" fill="#f15e43"/>
        <path id="Path_16562" data-name="Path 16562" d="M153.949,630.714a3.315,3.315,0,1,0,3.123,3.31A3.224,3.224,0,0,0,153.949,630.714Zm0,5.6a2.3,2.3,0,1,1,2.1-2.29A2.2,2.2,0,0,1,153.949,636.314Z" transform="translate(-150.825 -630.714)" fill="#4c2910"/>
      </g>
      <g id="Group_9153" data-name="Group 9153" transform="translate(5.784 1.512)">
        <path id="Path_16563" data-name="Path 16563" d="M134.739,641.276a2.3,2.3,0,1,0,2.1,2.29A2.2,2.2,0,0,0,134.739,641.276Z" transform="translate(-131.615 -640.256)" fill="#f15e43"/>
        <path id="Path_16564" data-name="Path 16564" d="M131.5,637.021a3.315,3.315,0,1,0,3.124,3.31A3.224,3.224,0,0,0,131.5,637.021Zm0,5.6a2.3,2.3,0,1,1,2.1-2.29A2.2,2.2,0,0,1,131.5,642.621Z" transform="translate(-128.381 -637.021)" fill="#4c2910"/>
      </g>
      <g id="Group_9154" data-name="Group 9154" transform="translate(23.324 18.201)">
        <path id="Path_16565" data-name="Path 16565" d="M205.082,708.069a2.3,2.3,0,1,0,2.1,2.29A2.2,2.2,0,0,0,205.082,708.069Z" transform="translate(-202.638 -707.729)" fill="#f15e43"/>
        <path id="Path_16566" data-name="Path 16566" d="M204,706.651a2.637,2.637,0,1,0,2.444,2.63A2.545,2.545,0,0,0,204,706.651Zm0,4.92a2.3,2.3,0,1,1,2.1-2.29A2.2,2.2,0,0,1,204,711.571Z" transform="translate(-201.56 -706.651)" fill="#4c2910"/>
      </g>
      <g id="Group_9155" data-name="Group 9155" transform="translate(18.865 19.033)">
        <path id="Path_16567" data-name="Path 16567" d="M186.476,711.541a2.3,2.3,0,1,0,2.1,2.29A2.2,2.2,0,0,0,186.476,711.541Z" transform="translate(-184.032 -711.201)" fill="#f15e43"/>
        <path id="Path_16568" data-name="Path 16568" d="M185.4,710.123a2.637,2.637,0,1,0,2.443,2.63A2.545,2.545,0,0,0,185.4,710.123Zm0,4.92a2.3,2.3,0,1,1,2.1-2.29A2.2,2.2,0,0,1,185.4,715.043Z" transform="translate(-182.955 -710.123)" fill="#4c2910"/>
      </g>
      <g id="Group_9156" data-name="Group 9156" transform="translate(2.712 11.048)">
        <path id="Path_16569" data-name="Path 16569" d="M124.024,683.426a1.862,1.862,0,0,0-.78-.174,2.687,2.687,0,0,0-1.815.907,2.75,2.75,0,0,1,1.56-3.09,3.1,3.1,0,0,0-3.055,3.836,2.692,2.692,0,0,0,2.748,2.273,5.118,5.118,0,0,0,.719-.055C125.1,686.881,125.639,684.162,124.024,683.426Z" transform="translate(-118.797 -680.047)" fill="#a79189"/>
        <path id="Path_16570" data-name="Path 16570" d="M133.058,681.062h0Z" transform="translate(-128.859 -680.042)" fill="#a79189"/>
        <path id="Path_16571" data-name="Path 16571" d="M121.213,679.258a2.883,2.883,0,0,0-1.2-.266c-.075,0-.149,0-.222.008a2.121,2.121,0,0,1,.32-.215,1.019,1.019,0,0,0-.346-1.979c-.028,0-.056,0-.084,0a4.356,4.356,0,0,0-3.358,1.769,3.841,3.841,0,0,0-.6,3.377,3.718,3.718,0,0,0,3.725,3,6.1,6.1,0,0,0,.862-.065,2.959,2.959,0,0,0,2.434-2.609A2.775,2.775,0,0,0,121.213,679.258Zm-1.765,4.679a2.692,2.692,0,0,1-2.748-2.273,3.1,3.1,0,0,1,3.055-3.836h0a2.75,2.75,0,0,0-1.56,3.09,2.687,2.687,0,0,1,1.815-.907,1.862,1.862,0,0,1,.78.174c1.615.737,1.076,3.456-.623,3.7A5.158,5.158,0,0,1,119.448,683.937Z" transform="translate(-115.563 -676.807)" fill="#4c2910"/>
      </g>
      <g id="Group_9157" data-name="Group 9157" transform="translate(44.373 9.451)">
        <path id="Path_16572" data-name="Path 16572" d="M289.377,670.177a3.111,3.111,0,0,1,.47-.032.794.794,0,0,1,.5.122.4.4,0,0,1,.143.326.413.413,0,0,1-.275.384v.007a.394.394,0,0,1,.208.292c.048.176.1.379.127.439h-.361a1.971,1.971,0,0,1-.109-.363c-.041-.194-.109-.247-.252-.25h-.106v.613h-.35v-1.538Zm.35.671h.139c.176,0,.28-.088.28-.224s-.1-.215-.259-.217a.876.876,0,0,0-.159.012Z" transform="translate(-289.377 -670.145)" fill="#4c2910"/>
      </g>
      <g id="Group_9158" data-name="Group 9158" transform="translate(43.277 8.649)">
        <path id="Path_16573" data-name="Path 16573" d="M286.408,670a1.6,1.6,0,1,1,1.6-1.6A1.6,1.6,0,0,1,286.408,670Zm0-2.858a1.257,1.257,0,1,0,1.257,1.257A1.259,1.259,0,0,0,286.408,667.142Z" transform="translate(-284.808 -666.799)" fill="#4c2910"/>
      </g>
    </g>
    <g id="Group_9160" data-name="Group 9160" transform="translate(118.68 294.775)">
      <path id="Path_16574" data-name="Path 16574" d="M292.3,711.54a2.343,2.343,0,0,0-1.137.353s1.085-2.141.377-3.22a1.369,1.369,0,0,0-1.217-.531,4.968,4.968,0,0,0-1.643.35s2.354,2.317-.254,5.3a4.736,4.736,0,0,1,1.778-.364,3.158,3.158,0,0,1,3.049,2.125s1.035-1.851.242-3.261A1.314,1.314,0,0,0,292.3,711.54Z" transform="translate(-287.404 -707.121)" fill="#a79189"/>
      <path id="Path_16575" data-name="Path 16575" d="M291.148,708.553a2.354,2.354,0,0,0-1.682-1.237,3.27,3.27,0,0,0-.309-2.44,2.306,2.306,0,0,0-2.07-.992,5.916,5.916,0,0,0-2.036.429,1.018,1.018,0,0,0-.618.75,1,1,0,0,0,.291.914,2.766,2.766,0,0,1,.605,1.149,3.044,3.044,0,0,1-.907,2.754,1.02,1.02,0,0,0,1.192,1.6,3.763,3.763,0,0,1,1.354-.272,2.154,2.154,0,0,1,2.113,1.51,1.02,1.02,0,0,0,.884.614h.052a1.02,1.02,0,0,0,.89-.522C291.042,712.571,292.191,710.409,291.148,708.553Zm-5.7-3.3a4.97,4.97,0,0,1,1.644-.35,1.369,1.369,0,0,1,1.217.531c.708,1.079-.377,3.22-.377,3.22a2.344,2.344,0,0,1,1.137-.353,1.313,1.313,0,0,1,1.194.749c.794,1.41-.242,3.261-.242,3.261a3.158,3.158,0,0,0-3.049-2.125,4.735,4.735,0,0,0-1.778.364C287.8,707.572,285.444,705.256,285.444,705.256Z" transform="translate(-284.171 -703.885)" fill="#4c2910"/>
    </g>
  </g>
</svg>
