<svg xmlns="http://www.w3.org/2000/svg" width="218.933" height="198.77" viewBox="0 0 218.933 198.77">
  <g id="Group_9161" data-name="Group 9161" transform="translate(-75.556 -277.237)">
    <g id="Group_9159" data-name="Group 9159" transform="translate(75.556 277.237)">
      <path id="Path_16522" data-name="Path 16522" d="M271.862,648.077c.165,5.012,8.635,3.637,11.168,14.358,1.019,4.319-.736,11.289-3.8,16.2-2.952,4.723-.3,9.235.981,10.676,7.852,8.835,17.18,21.106,22.334,26.5s3.747,12.764,1.716,23.069-32.972,71.17-44.52,76.08-22.073-12.272-30.252-12.272-49.526-5.89-53.395-5.4-22.52,1.964-28.41-13.743-25.521-28.823-22.087-42.635c1.8-7.242,3.716-17.457,2.271-25.468-1.314-7.269-5.91-12.505-6.2-16.149-.769-9.771,9.126-12.764,15.768-19.13a70.052,70.052,0,0,0,15.645-23.561c3.436-9.336,15.214,1.252,27.487,9.369s6.381,7.626,23.56,4.19-4.908-10.583,7.854-16.09,23.559-9.382,31.9-7.69S271.494,636.779,271.862,648.077Z" transform="translate(-103.581 -630.243)" fill="#4c2910"/>
      <g id="Group_9140" data-name="Group 9140" transform="translate(100.745 7.981)">
        <path id="Path_16523" data-name="Path 16523" d="M229.815,642.654a9.377,9.377,0,0,0-1.2.076c-6.953.885-5.39,8.712-5.39,8.712s-5.974-6.863-11.233-6.863a5.513,5.513,0,0,0-1.079.1c-5.486,1.083-5.387,11.189-5.387,11.189a15.754,15.754,0,0,1,5.7-1.028c4.492,0,10.714,1.872,15.149,10.678,0,0-.709-16.161,14.933-16.506C241.311,649.014,236.218,642.654,229.815,642.654Z" transform="translate(-201.105 -638.237)" fill="#a79189"/>
        <path id="Path_16524" data-name="Path 16524" d="M244.923,646.416c-.657-.82-6.659-8.016-14.945-8.016a13.99,13.99,0,0,0-1.757.111,10.236,10.236,0,0,0-7.3,4.133c-.143.2-.28.4-.4.609a15.652,15.652,0,0,0-8.361-2.927,10.048,10.048,0,0,0-1.936.187c-8.827,1.743-8.962,14.155-8.949,15.565a4.384,4.384,0,0,0,4.377,4.4,4.312,4.312,0,0,0,1.772-.382,11.818,11.818,0,0,1,3.975-.674c4.677,0,8.446,2.775,11.2,8.246a4.418,4.418,0,0,0,8.359-2.181c0-.031-.143-5.632,3.1-9.058,1.74-1.837,4.2-2.765,7.515-2.837a4.418,4.418,0,0,0,3.351-7.179Zm-18.381,19.267c-4.435-8.8-10.657-10.678-15.149-10.678a15.729,15.729,0,0,0-5.7,1.028s-.1-10.105,5.387-11.188a5.518,5.518,0,0,1,1.079-.1c5.259,0,11.233,6.863,11.233,6.863s-1.563-7.826,5.39-8.712a9.4,9.4,0,0,1,1.2-.076c6.4,0,11.5,6.36,11.5,6.36C225.832,649.521,226.541,665.684,226.541,665.684Z" transform="translate(-201.268 -638.4)" fill="#4c2910"/>
      </g>
      <g id="Group_9141" data-name="Group 9141" transform="translate(148.057 3.526)">
        <path id="Path_16525" data-name="Path 16525" d="M251.086,653.942,285.2,648.3l3.418-9.935-36.06,8.377Z" transform="translate(-246.669 -633.947)" fill="#a79189"/>
        <path id="Path_16526" data-name="Path 16526" d="M292.061,635.569a4.42,4.42,0,0,0-4.279-1.345L251.721,642.6a4.417,4.417,0,0,0-3.329,3.419l-1.47,7.2a4.412,4.412,0,0,0,5.049,5.242l34.111-5.643a4.417,4.417,0,0,0,3.457-2.921l3.42-9.935A4.42,4.42,0,0,0,292.061,635.569Zm-3.28,2.958-3.418,9.935-34.113,5.643,1.471-7.2Z" transform="translate(-246.832 -634.11)" fill="#4c2910"/>
      </g>
      <g id="Group_9142" data-name="Group 9142" transform="translate(77.046 43.471)">
        <path id="Path_16527" data-name="Path 16527" d="M268.609,700.3a10.847,10.847,0,0,0,1.31,9.563,10.83,10.83,0,0,0-1.31-9.563Z" transform="translate(-175.008 -671.514)" fill="none"/>
        <path id="Path_16528" data-name="Path 16528" d="M264.192,676.831a21.868,21.868,0,0,0-4.937.573c-13.586,3.139-24.331,16.739-18.429,31.928,4.062,10.456,11.6,15.066,20.754,15.066a37.455,37.455,0,0,0,13.253-2.717,19.732,19.732,0,0,1-15.766,7.621c-10.21,0-19.373-6.837-19.373-6.837-16.02,11.617-34.307,13.791-45.752,13.791a71.326,71.326,0,0,1-11.243-.777l26.764,22.813A48.516,48.516,0,0,0,242.7,733.135a41,41,0,0,0,17.9,4.291,31.6,31.6,0,0,0,14.052-3.182c15.793-7.756,15.405-28.071,12.828-37.524C284.555,686.007,275.52,676.831,264.192,676.831ZM273.86,715.6a3.317,3.317,0,0,1-.44.03c-2.887,0-5.686-3.839-6.381-8.895-.727-5.312,1.143-9.957,4.179-10.374a3.318,3.318,0,0,1,.44-.03c2.888,0,5.688,3.839,6.381,8.895C278.768,710.537,276.9,715.182,273.86,715.6Z" transform="translate(-178.283 -672.415)" fill="#a79189"/>
        <path id="Path_16529" data-name="Path 16529" d="M274.927,704.5c-.693-5.056-3.492-8.895-6.381-8.895a3.318,3.318,0,0,0-.44.03c-3.037.417-4.907,5.061-4.18,10.374.695,5.056,3.493,8.895,6.381,8.895a3.317,3.317,0,0,0,.44-.03C273.785,714.461,275.656,709.816,274.927,704.5Zm-6.156-4.027a10.83,10.83,0,0,1,1.311,9.564,10.847,10.847,0,0,1-1.311-9.564Z" transform="translate(-175.171 -671.694)" fill="#4c2910"/>
        <path id="Path_16530" data-name="Path 16530" d="M291.9,695.723c-3.713-13.628-15.039-23.145-27.543-23.145a26.364,26.364,0,0,0-5.931.686A31.167,31.167,0,0,0,238,688.643a26.686,26.686,0,0,0-1.133,22.454,33.2,33.2,0,0,0,3.814,7.194,4.417,4.417,0,0,0-3.419.763c-14.76,10.7-31.617,12.95-43.158,12.95a67.068,67.068,0,0,1-10.473-.71A4.417,4.417,0,0,0,180,739.005l26.764,22.813a4.421,4.421,0,0,0,2.866,1.056,4.349,4.349,0,0,0,.9-.093,53.023,53.023,0,0,0,34.236-23.814,45.694,45.694,0,0,0,15.991,3.041,35.962,35.962,0,0,0,16-3.634C294.078,729.868,295.3,708.207,291.9,695.723Zm-31.143,41.867a41,41,0,0,1-17.9-4.291,48.515,48.515,0,0,1-33.233,25.157l-26.764-22.813a71.3,71.3,0,0,0,11.243.777c11.444,0,29.732-2.173,45.752-13.791,0,0,9.163,6.837,19.373,6.837A19.734,19.734,0,0,0,275,721.844a37.454,37.454,0,0,1-13.253,2.718c-9.155,0-16.692-4.61-20.754-15.066-5.9-15.189,4.843-28.788,18.429-31.928a21.881,21.881,0,0,1,4.938-.573c11.328,0,20.363,9.176,23.282,19.889,2.577,9.453,2.965,29.768-12.828,37.524A31.588,31.588,0,0,1,260.757,737.589Z" transform="translate(-178.446 -672.578)" fill="#4c2910"/>
      </g>
      <g id="Group_9143" data-name="Group 9143" transform="translate(30.112 25.216)">
        <path id="Path_16531" data-name="Path 16531" d="M202.028,697.441a4.067,4.067,0,0,0,.948.13,1.032,1.032,0,0,0,.974-.429c.679-.894,1.027-3.026.375-5.369-1.349-4.86-5.817-14.031-12.064-17.956l-.045-.028c1.148,2.971,2.094,6.178,3.018,9.312C196.934,688.87,199.265,696.77,202.028,697.441Z" transform="translate(-130.983 -654.277)" fill="none"/>
        <path id="Path_16532" data-name="Path 16532" d="M168.161,677.27a8.762,8.762,0,0,0,1.158,4.9,9.156,9.156,0,0,0,3.636,4.006,8.756,8.756,0,0,0-1.158-4.9A9.168,9.168,0,0,0,168.161,677.27Z" transform="translate(-131.908 -654.143)" fill="none"/>
        <path id="Path_16533" data-name="Path 16533" d="M196.709,670.634c7.193,4.518,12.3,14.505,13.972,20.515,1.5,5.384-.3,11.4-5.605,11.4a8.415,8.415,0,0,1-1.992-.254c-7.984-1.941-9.232-19.366-14.278-29.55-4.213-8.5-14.472-13.49-25.158-13.49a33.74,33.74,0,0,0-6.386.605c-12.75,2.454-19.823,12.432-19.762,25.684.032,6.976,2.965,23.381,24.6,26.357a26.235,26.235,0,0,0,3.587.252c15.842,0,21.079-15.506,21.079-15.506.676,6.247,5.4,14.2,13.606,14.2.144,0,.289,0,.435-.007,8.479-.288,20.585-5.7,24.283-18.483s-4.589-30.684-4.589-30.684ZM176.239,691.1a3.636,3.636,0,0,1-1.591.349c-2.7,0-6.016-2.587-8.073-6.557-2.488-4.8-2.2-9.8.653-11.167a3.64,3.64,0,0,1,1.592-.349c2.7,0,6.016,2.588,8.076,6.557C179.381,684.733,179.089,689.732,176.239,691.1Z" transform="translate(-133.083 -654.835)" fill="#a79189"/>
        <path id="Path_16534" data-name="Path 16534" d="M175.883,679.412c-2.059-3.97-5.378-6.557-8.076-6.557a3.637,3.637,0,0,0-1.592.349c-2.849,1.369-3.141,6.369-.653,11.167,2.058,3.969,5.375,6.557,8.073,6.557a3.633,3.633,0,0,0,1.591-.349C178.077,689.21,178.369,684.211,175.883,679.412Zm-2.764,6.931a9.155,9.155,0,0,1-3.636-4.006,8.755,8.755,0,0,1-1.158-4.9,9.162,9.162,0,0,1,3.636,4.007A8.758,8.758,0,0,1,173.119,686.344Z" transform="translate(-132.071 -654.313)" fill="#4c2910"/>
        <path id="Path_16535" data-name="Path 16535" d="M224.671,659.974A4.416,4.416,0,0,0,219.1,657.7l-23.788,8.966a4.418,4.418,0,0,0-2.81,3.47C187.481,660.91,176.335,655,163.812,655a38.312,38.312,0,0,0-7.221.684c-14.472,2.786-23.417,14.3-23.344,30.043.059,12.967,7.554,27.844,28.415,30.713a30.814,30.814,0,0,0,4.188.294A25.377,25.377,0,0,0,185.7,707.42c.1-.124.208-.247.31-.372,3.1,4.8,8.09,8.373,14.526,8.373.194,0,.388,0,.585-.009,10.755-.363,24.22-7.3,28.376-21.67C233.606,679.533,225.038,660.765,224.671,659.974Zm.58,32.541c-3.7,12.787-15.8,18.2-24.283,18.483-.146,0-.291.007-.435.007-8.207,0-12.929-7.949-13.606-14.2,0,0-5.238,15.506-21.079,15.506a26.4,26.4,0,0,1-3.587-.252c-21.636-2.976-24.568-19.381-24.6-26.357-.061-13.253,7.011-23.231,19.761-25.684a33.745,33.745,0,0,1,6.386-.605c10.686,0,20.946,4.995,25.158,13.49,5.045,10.185,6.294,27.61,14.278,29.55a8.413,8.413,0,0,0,1.992.255c5.305,0,7.1-6.014,5.605-11.4-1.669-6.01-6.78-16-13.973-20.515l23.791-8.967S228.952,679.729,225.252,692.515Zm-30.729-17.978c6.248,3.925,10.715,13.1,12.064,17.956.652,2.344.3,4.475-.375,5.37a1.03,1.03,0,0,1-.974.429,4.073,4.073,0,0,1-.948-.13c-2.762-.671-5.092-8.572-6.794-14.341-.924-3.134-1.869-6.341-3.018-9.312A.419.419,0,0,0,194.523,674.537Z" transform="translate(-133.247 -654.998)" fill="#4c2910"/>
      </g>
      <g id="Group_9144" data-name="Group 9144" transform="translate(171.502 106.253)">
        <path id="Path_16536" data-name="Path 16536" d="M277.884,770.268c-1.193,13.611-4.217,39.6-4.217,39.6,14.625-5.46,19.926-21.174,20.907-30.5s2.132-42.078,2.132-42.078c-6.652,6.9-20.768,6.9-20.768,6.9S279.635,750.331,277.884,770.268Z" transform="translate(-269.247 -732.876)" fill="#a79189"/>
        <path id="Path_16537" data-name="Path 16537" d="M298.592,733.389a4.419,4.419,0,0,0-4.9,1c-4.389,4.552-14.183,5.549-17.588,5.549a4.432,4.432,0,0,0-4,2.25,4.193,4.193,0,0,0,.17,4.385c.316.7,2.826,6.885,1.372,23.469-1.175,13.392-4.174,39.218-4.205,39.477a4.419,4.419,0,0,0,5.934,4.649,34.5,34.5,0,0,0,17.866-15.761A49.127,49.127,0,0,0,299.129,780c.985-9.371,2.1-41.042,2.153-42.386A4.412,4.412,0,0,0,298.592,733.389Zm-20.544,37.042c1.751-19.937-1.947-26.073-1.947-26.073s14.116,0,20.768-6.9c0,0-1.149,32.753-2.132,42.077s-6.282,25.039-20.907,30.5C273.83,810.033,276.854,784.043,278.047,770.431Z" transform="translate(-269.411 -733.039)" fill="#4c2910"/>
      </g>
      <g id="Group_9145" data-name="Group 9145" transform="translate(118.651 113.402)">
        <path id="Path_16538" data-name="Path 16538" d="M246.316,798a9.669,9.669,0,0,0,1.153,3.125c1.552-2.479,2.988-10.956,2.028-18.676-.429-3.455-1.147-7.715-2.067-12.132-1.061,7.489-2.218,16.736-2.033,19.953A49.019,49.019,0,0,0,246.316,798Z" transform="translate(-217.482 -738.757)" fill="none"/>
        <path id="Path_16539" data-name="Path 16539" d="M244.746,759.3v.005h0Z" transform="translate(-217.506 -739.18)" fill="#a79189"/>
        <path id="Path_16540" data-name="Path 16540" d="M243.273,790.823c.189,3.281.76,13.268,4.514,13.269.167,0,.523-.009,1.076-.645,2.753-3.174,3.807-13.623,2.908-20.844a172.916,172.916,0,0,0-4.757-23.281,2.282,2.282,0,0,1-.075.553C246.53,762.016,242.947,785.15,243.273,790.823Zm4.238-20.08c.92,4.418,1.639,8.677,2.067,12.133.961,7.72-.476,16.2-2.028,18.676a9.672,9.672,0,0,1-1.153-3.126,49.022,49.022,0,0,1-.92-7.73C245.292,787.478,246.449,778.231,247.51,770.742Z" transform="translate(-217.564 -739.18)" fill="#4c2910"/>
        <path id="Path_16541" data-name="Path 16541" d="M276.075,744.251a4.418,4.418,0,0,0-4.253-4.3c-.5-.019-1.012-.028-1.514-.028a39.072,39.072,0,0,0-25.5,9.3,4.416,4.416,0,0,0-1.11,4.718c.166.455.329.921.493,1.4-6.931-1.055-20.464-3.056-20.617-3.079a4.525,4.525,0,0,0-.647-.048,4.419,4.419,0,0,0-4.413,4.606c.03.72.773,17.749,2.541,28.564,1.811,11.091,4.516,23.291,10.815,29.7,3.592,3.651,9.974,5.83,17.07,5.83a28.456,28.456,0,0,0,15.2-4.015c10.3-6.615,11.969-22.583,12.329-34.02C276.8,772.511,276.1,745.4,276.075,744.251ZM248.943,816.5c-5.6,0-11.035-1.579-13.922-4.511-5.253-5.34-7.859-16.633-9.605-27.311s-2.487-28.04-2.487-28.04,17.167,2.539,22.823,3.417a.013.013,0,0,1,0-.005.014.014,0,0,1,0,.005h0c-.125.379-4.1,25.323-3.736,31.64.368,6.384,1.274,15.353,6.72,15.353h.088c5.524-.1,7.219-14.875,6.087-23.969s-3.985-22.2-7.06-30.641a34.658,34.658,0,0,1,22.456-8.093c.447,0,.9.008,1.351.025,0,0,.726,28.013.4,38.373-.4,12.811-2.522,25.446-10.3,30.439A24.248,24.248,0,0,1,248.943,816.5Zm-1.055-55.876a2.294,2.294,0,0,0,.075-.554,172.93,172.93,0,0,1,4.757,23.28c.9,7.222-.155,17.671-2.909,20.845-.552.635-.909.643-1.076.645-3.753,0-4.325-9.988-4.514-13.27C243.9,785.894,247.48,762.76,247.888,760.62Z" transform="translate(-218.513 -739.924)" fill="#4c2910"/>
      </g>
      <g id="Group_9147" data-name="Group 9147" transform="translate(27.87 117.82)">
        <path id="Path_16542" data-name="Path 16542" d="M168.639,770.733a10.83,10.83,0,0,0,1.312,9.563,10.848,10.848,0,0,0-1.312-9.563Z" transform="translate(-129.668 -743.16)" fill="none"/>
        <path id="Path_16543" data-name="Path 16543" d="M186.737,781.159c-.007,1-.039,2-.1,3.016a57.855,57.855,0,0,0,7.658,2.334A51.069,51.069,0,0,1,186.737,781.159Z" transform="translate(-128.955 -742.76)" fill="none"/>
        <path id="Path_16544" data-name="Path 16544" d="M168.5,768.172a1.1,1.1,0,0,0-.14.009c-1.35.186-2.913,3.351-2.292,7.885.594,4.329,2.842,6.987,4.192,6.987a.89.89,0,0,0,.14-.01c1.351-.184,2.915-3.349,2.292-7.885C172.093,770.83,169.846,768.172,168.5,768.172Zm1.537,12.223a10.83,10.83,0,0,1-1.313-9.564,10.848,10.848,0,0,1,1.313,9.564Z" transform="translate(-129.75 -743.258)" fill="#4c2910"/>
        <path id="Path_16545" data-name="Path 16545" d="M168.577,766.045a3.283,3.283,0,0,0-.44.029c-3.036.417-4.908,5.062-4.18,10.373.694,5.057,3.493,8.895,6.381,8.895a3.313,3.313,0,0,0,.44-.03c3.037-.415,4.91-5.061,4.18-10.373C174.264,769.884,171.464,766.045,168.577,766.045Zm1.9,17.08a.889.889,0,0,1-.14.01c-1.35,0-3.6-2.658-4.192-6.987-.621-4.535.942-7.7,2.292-7.886a1.081,1.081,0,0,1,.14-.009c1.351,0,3.6,2.658,4.192,6.987C173.392,779.777,171.828,782.941,170.477,783.125Z" transform="translate(-129.831 -743.34)" fill="#4c2910"/>
        <g id="Group_9146" data-name="Group 9146">
          <path id="Path_16546" data-name="Path 16546" d="M186.737,781.159c-.007,1-.039,2-.1,3.016a57.855,57.855,0,0,0,7.658,2.334A51.069,51.069,0,0,1,186.737,781.159Z" transform="translate(-128.955 -742.76)" fill="none"/>
          <path id="Path_16547" data-name="Path 16547" d="M192.105,748.625l-5.362,25.322c11.481,15.192,37.855,19.174,37.855,19.174a87.231,87.231,0,0,1-12.1.859c-14.169,0-24.051-3.645-28.551-5.733a49.382,49.382,0,0,0-1.52-19.662c-2.287-7.161-6.484-12.509-11.709-15.724a30.6,30.6,0,0,1-13.061,11.05c-5.877,2.572-14.708,5.459-22.315,9.255a20.814,20.814,0,0,0,5.442,13.014,28.425,28.425,0,0,0,21.9,10.016,27.36,27.36,0,0,0,7.591-.984c-9.388,7.748-12.884,7.82-24.113,11.135,7.178,12.676,21.069,14.2,21.069,14.2,8.279-5.8,13.248-15.406,15.537-25.342,8.04,3.921,17.758,5.13,26.675,5.13a122.482,122.482,0,0,0,22.1-2.156c-.834-2.917-1.521-6.028-2.117-9.165C207.153,775.534,192.105,748.625,192.105,748.625Z" transform="translate(-130.924 -744.008)" fill="none"/>
          <path id="Path_16548" data-name="Path 16548" d="M271.5,744.2c-.456-.018-.9-.025-1.351-.025a34.658,34.658,0,0,0-22.456,8.093c3.075,8.437,5.929,21.544,7.06,30.641s-.563,23.871-6.087,23.969h-.088c-5.445,0-6.353-8.969-6.72-15.352-.362-6.317,3.611-31.261,3.736-31.641-5.655-.879-22.823-3.417-22.823-3.417s.686,16.062,2.292,26.79a58.789,58.789,0,0,0,9.683,5.474,4.417,4.417,0,0,1,2.629,4.343l-.314,4.616a4.419,4.419,0,0,1-3.322,3.983c-.173.045-1.686.423-4.163.9a26.049,26.049,0,0,0,5.285,9.24c2.887,2.931,8.319,4.51,13.922,4.51a24.253,24.253,0,0,0,12.816-3.316c7.778-4.995,9.9-17.628,10.3-30.439C272.221,772.215,271.5,744.2,271.5,744.2Z" transform="translate(-127.568 -744.179)" fill="#a79189"/>
          <path id="Path_16549" data-name="Path 16549" d="M232.528,795.732l.313-4.615a60.139,60.139,0,0,1-6.887-3.6c.6,3.137,1.283,6.249,2.117,9.165C230.871,796.152,232.528,795.732,232.528,795.732Z" transform="translate(-127.446 -742.516)" fill="#a79189"/>
          <path id="Path_16550" data-name="Path 16550" d="M238.26,788.728a58.922,58.922,0,0,1-9.683-5.473c-19.18-13.228-32.3-36.355-32.453-36.625a4.421,4.421,0,0,0-3.853-2.259,4.532,4.532,0,0,0-.666.051,4.418,4.418,0,0,0-3.657,3.451l-3.094,14.614a30.994,30.994,0,0,0-11.659-13.225,4.416,4.416,0,0,0-6.017,1.354,26.056,26.056,0,0,1-11.128,9.41c-2.1.92-4.685,1.916-7.416,2.966-4.757,1.833-10.145,3.91-15.1,6.382a4.416,4.416,0,0,0-2.44,4.138,25.363,25.363,0,0,0,6.536,15.743,32.8,32.8,0,0,0,16.505,10.407c-1.313.41-2.748.813-4.393,1.274-1.377.387-2.937.826-4.66,1.334a4.417,4.417,0,0,0-2.594,6.412c8.2,14.478,23.775,16.34,24.432,16.413a4.134,4.134,0,0,0,.481.027,4.424,4.424,0,0,0,2.537-.8c7.177-5.031,12.726-13.073,15.925-22.964a71.813,71.813,0,0,0,23.751,3.552,126.634,126.634,0,0,0,23.48-2.337c2.477-.482,3.99-.86,4.163-.9a4.419,4.419,0,0,0,3.322-3.983l.314-4.615A4.412,4.412,0,0,0,238.26,788.728Zm-2.09,8.66s-1.657.419-4.457.95a122.5,122.5,0,0,1-22.1,2.156c-8.918,0-18.635-1.208-26.675-5.13-2.29,9.935-7.258,19.54-15.537,25.342,0,0-13.89-1.522-21.069-14.2,11.229-3.313,14.725-3.387,24.113-11.134a27.376,27.376,0,0,1-7.591.983,28.423,28.423,0,0,1-21.9-10.016,20.816,20.816,0,0,1-5.442-13.014c7.607-3.8,16.438-6.684,22.315-9.255a30.584,30.584,0,0,0,13.061-11.049c5.225,3.216,9.422,8.563,11.709,15.724a49.382,49.382,0,0,1,1.52,19.662c4.5,2.088,14.384,5.733,28.551,5.733a87.239,87.239,0,0,0,12.1-.859s-26.374-3.982-37.855-19.174l5.362-25.322s15.048,26.909,37.326,40.386a60.107,60.107,0,0,0,6.887,3.6Zm-47.4-11.8q.086-1.518.1-3.015a51.1,51.1,0,0,0,7.562,5.35A57.861,57.861,0,0,1,188.772,785.586Z" transform="translate(-131.087 -744.172)" fill="#4c2910"/>
        </g>
      </g>
      <g id="Group_9149" data-name="Group 9149" transform="translate(0 78.214)">
        <path id="Path_16551" data-name="Path 16551" d="M140.4,733.276c-.628.153-2.945.968-3.46,4.765a2.275,2.275,0,0,0,.219,1.639,1.2,1.2,0,0,0,.888.306,2.722,2.722,0,0,0,2.268-1.4c1.326-2.1,1.54-3.886,1.181-4.655A1.43,1.43,0,0,0,140.4,733.276Z" transform="translate(-102.994 -704.991)" fill="none"/>
        <path id="Path_16552" data-name="Path 16552" d="M159.422,723.046c-3.6-5.617-5.952-12.754-16.117-12.754a25.756,25.756,0,0,0-3.024.189c-12.764,1.52-18.15,21.311-19.262,35.467s-1.347,24.577-5.522,31.638-10.8,12.888-4.177,16.233c2.342,1.182,4.224,2.007,5.766,2.007,2.825,0,4.508-2.766,5.774-11.179,1.879-12.478,25.52-18.9,37.3-24.051s20.174-18.628,14.75-26.983S163.349,729.181,159.422,723.046Zm-14.279,18.776a7.149,7.149,0,0,1-6,3.464c-3.21,0-6.1-2.413-5.484-6.955.932-6.891,6.182-8.615,7.871-8.615a1.758,1.758,0,0,1,.233.013C147.4,730.464,148.778,736.055,145.143,741.822Z" transform="translate(-104.084 -705.874)" fill="#f15e43"/>
        <path id="Path_16553" data-name="Path 16553" d="M140.831,729.01A1.876,1.876,0,0,0,140.6,729c-1.689,0-6.938,1.725-7.871,8.615-.616,4.542,2.274,6.955,5.484,6.955a7.149,7.149,0,0,0,6.005-3.464C147.852,735.338,146.477,729.746,140.831,729.01Zm-2.62,11.14a1.2,1.2,0,0,1-.888-.306,2.272,2.272,0,0,1-.219-1.638c.515-3.8,2.832-4.613,3.46-4.765a1.434,1.434,0,0,1,1.1.652c.36.77.146,2.553-1.181,4.655A2.717,2.717,0,0,1,138.211,740.149Z" transform="translate(-103.158 -705.156)" fill="#4c2910"/>
        <g id="Group_9148" data-name="Group 9148">
          <path id="Path_16554" data-name="Path 16554" d="M174.909,733.612c-5.426-8.357-11.56-4.431-15.486-10.566-3.6-5.617-5.952-12.753-16.117-12.753a25.781,25.781,0,0,0-3.024.189c-12.764,1.52-18.15,21.311-19.262,35.467s-1.347,24.576-5.522,31.637-10.8,12.888-4.177,16.233c2.342,1.182,4.224,2.007,5.766,2.007,2.825,0,4.508-2.766,5.774-11.179,1.879-12.478,25.52-18.9,37.3-24.051S180.332,741.968,174.909,733.612Z" transform="translate(-104.084 -705.874)" fill="none"/>
          <path id="Path_16555" data-name="Path 16555" d="M168.577,766.045a3.283,3.283,0,0,0-.44.029c-3.036.417-4.908,5.062-4.18,10.373.694,5.057,3.493,8.895,6.381,8.895a3.313,3.313,0,0,0,.44-.03c3.037-.415,4.91-5.061,4.18-10.373C174.264,769.884,171.464,766.045,168.577,766.045Z" transform="translate(-101.962 -703.734)" fill="none"/>
          <path id="Path_16556" data-name="Path 16556" d="M192.1,748.625l-5.362,25.322c11.481,15.192,37.855,19.174,37.855,19.174a87.231,87.231,0,0,1-12.1.859c-14.169,0-24.051-3.645-28.551-5.733a49.382,49.382,0,0,0-1.52-19.662,28.763,28.763,0,0,0-9.517-14.195,35.154,35.154,0,0,1-12.01,8.782c-2.283,1-4.954,2.028-7.782,3.117-5.4,2.082-12.256,4.724-17.707,7.869a20.953,20.953,0,0,0,5.373,12.021,28.425,28.425,0,0,0,21.9,10.016,27.36,27.36,0,0,0,7.591-.984c-9.388,7.748-12.884,7.82-24.113,11.135,7.178,12.676,21.069,14.2,21.069,14.2,8.279-5.8,13.248-15.406,15.537-25.342,8.04,3.921,17.758,5.13,26.675,5.13A121.067,121.067,0,0,0,236,797.227l.313-4.615C210.309,781.183,192.1,748.625,192.1,748.625Zm-20.236,37.357a3.139,3.139,0,0,1-.44.03c-2.887,0-5.687-3.838-6.381-8.895-.728-5.312,1.144-9.956,4.179-10.374a3.148,3.148,0,0,1,.44-.029c2.888,0,5.687,3.838,6.381,8.894C176.776,780.921,174.9,785.566,171.867,785.982Z" transform="translate(-103.052 -704.402)" fill="#a79189"/>
          <path id="Path_16557" data-name="Path 16557" d="M178.778,731.37c-3.8-5.856-8.165-7.168-11.353-8.128-2.367-.712-3.231-1.029-4.119-2.415-.492-.769-.971-1.59-1.478-2.458-3.034-5.2-7.19-12.332-18.361-12.332a30.113,30.113,0,0,0-3.546.22c-14.917,1.777-21.736,21.573-23.142,39.507q-.21,2.674-.387,5.171c-.788,10.772-1.41,19.279-4.535,24.563-.848,1.435-1.845,2.867-2.809,4.253-2.907,4.175-5.652,8.119-4.553,12.466a8.855,8.855,0,0,0,5,5.707c2.59,1.307,5.132,2.481,7.756,2.481,7.894,0,9.356-9.717,10.142-14.938.542-3.606,4.31-6.844,9.215-9.675,5.45-3.145,12.3-5.787,17.706-7.869,2.829-1.09,5.5-2.117,7.782-3.118a35.143,35.143,0,0,0,12.01-8.781,28.989,28.989,0,0,0,6.213-10.724C181.867,740.127,181.335,735.31,178.778,731.37Zm-18.456,29.389c-11.779,5.155-35.42,11.574-37.3,24.051-1.267,8.413-2.949,11.179-5.774,11.179-1.541,0-3.425-.825-5.766-2.007-6.625-3.346,0-9.172,4.177-16.233s4.413-17.481,5.522-31.637,6.5-33.946,19.262-35.467a25.543,25.543,0,0,1,3.024-.189c10.165,0,12.522,7.137,16.117,12.753,3.926,6.136,10.061,2.208,15.486,10.565S172.1,755.6,160.322,760.759Z" transform="translate(-104.248 -706.037)" fill="#4c2910"/>
        </g>
      </g>
      <g id="Group_9150" data-name="Group 9150" transform="translate(155.777 24.338)">
        <path id="Path_16558" data-name="Path 16558" d="M264.8,655.57c-5.034,0-9.114,4.442-9.114,9.922s4.081,9.921,9.114,9.921,9.115-4.442,9.115-9.921S269.831,655.57,264.8,655.57Z" transform="translate(-254.212 -654.098)" fill="#f15e43"/>
        <path id="Path_16559" data-name="Path 16559" d="M264.852,654.152c-5.837,0-10.586,5.111-10.586,11.394s4.75,11.393,10.586,11.393,10.587-5.111,10.587-11.393S270.689,654.152,264.852,654.152Zm0,21.316c-5.034,0-9.114-4.442-9.114-9.922s4.081-9.922,9.114-9.922,9.115,4.442,9.115,9.922S269.885,675.468,264.852,675.468Z" transform="translate(-254.266 -654.152)" fill="#4c2910"/>
      </g>
      <g id="Group_9151" data-name="Group 9151" transform="translate(136.456 27.942)">
        <ellipse id="Ellipse_58" data-name="Ellipse 58" cx="9.114" cy="9.922" rx="9.114" ry="9.922" transform="translate(1.472 1.472)" fill="#f15e43"/>
        <path id="Path_16560" data-name="Path 16560" d="M246.246,657.623c-5.837,0-10.586,5.111-10.586,11.394s4.75,11.394,10.586,11.394,10.585-5.111,10.585-11.394S252.084,657.623,246.246,657.623Zm0,21.315c-5.034,0-9.114-4.442-9.114-9.922s4.081-9.922,9.114-9.922,9.114,4.442,9.114,9.922S251.279,678.938,246.246,678.938Z" transform="translate(-235.66 -657.623)" fill="#4c2910"/>
      </g>
      <g id="Group_9152" data-name="Group 9152" transform="translate(48.365)">
        <path id="Path_16561" data-name="Path 16561" d="M164.194,634.969c-5.034,0-9.114,4.442-9.114,9.922s4.081,9.922,9.114,9.922,9.113-4.443,9.113-9.922S169.228,634.969,164.194,634.969Z" transform="translate(-150.662 -630.551)" fill="#f15e43"/>
        <path id="Path_16562" data-name="Path 16562" d="M164.357,630.714c-7.463,0-13.532,6.432-13.532,14.339s6.07,14.339,13.532,14.339,13.53-6.433,13.53-14.339S171.818,630.714,164.357,630.714Zm0,24.261c-5.034,0-9.114-4.442-9.114-9.922s4.081-9.922,9.114-9.922,9.113,4.442,9.113,9.922S169.391,654.975,164.357,654.975Z" transform="translate(-150.825 -630.714)" fill="#4c2910"/>
      </g>
      <g id="Group_9153" data-name="Group 9153" transform="translate(25.06 6.549)">
        <path id="Path_16563" data-name="Path 16563" d="M141.749,641.276c-5.034,0-9.114,4.441-9.114,9.922s4.081,9.922,9.114,9.922,9.115-4.442,9.115-9.922S146.782,641.276,141.749,641.276Z" transform="translate(-128.218 -636.858)" fill="#f15e43"/>
        <path id="Path_16564" data-name="Path 16564" d="M141.912,637.021c-7.462,0-13.531,6.433-13.531,14.339s6.07,14.339,13.531,14.339,13.532-6.433,13.532-14.339S149.373,637.021,141.912,637.021Zm0,24.261c-5.034,0-9.114-4.442-9.114-9.922s4.081-9.922,9.114-9.922,9.115,4.441,9.115,9.922S146.945,661.282,141.912,661.282Z" transform="translate(-128.381 -637.021)" fill="#4c2910"/>
      </g>
      <g id="Group_9154" data-name="Group 9154" transform="translate(101.048 78.852)">
        <path id="Path_16565" data-name="Path 16565" d="M212.092,708.069c-5.034,0-9.114,4.442-9.114,9.922s4.081,9.922,9.114,9.922,9.114-4.442,9.114-9.922S217.126,708.069,212.092,708.069Z" transform="translate(-201.506 -706.597)" fill="#f15e43"/>
        <path id="Path_16566" data-name="Path 16566" d="M212.146,706.651c-5.839,0-10.586,5.112-10.586,11.394s4.747,11.394,10.586,11.394,10.586-5.112,10.586-11.394S217.983,706.651,212.146,706.651Zm0,21.316c-5.034,0-9.114-4.442-9.114-9.922s4.081-9.922,9.114-9.922,9.114,4.442,9.114,9.922S217.18,727.967,212.146,727.967Z" transform="translate(-201.56 -706.651)" fill="#4c2910"/>
      </g>
      <g id="Group_9155" data-name="Group 9155" transform="translate(81.728 82.457)">
        <path id="Path_16567" data-name="Path 16567" d="M193.487,711.541c-5.034,0-9.115,4.442-9.115,9.922s4.082,9.922,9.115,9.922,9.112-4.441,9.112-9.922S198.519,711.541,193.487,711.541Z" transform="translate(-182.901 -710.069)" fill="#f15e43"/>
        <path id="Path_16568" data-name="Path 16568" d="M193.541,710.123c-5.839,0-10.586,5.111-10.586,11.394s4.747,11.394,10.586,11.394,10.584-5.111,10.584-11.394S199.378,710.123,193.541,710.123Zm0,21.315c-5.034,0-9.115-4.441-9.115-9.922s4.082-9.921,9.115-9.921,9.112,4.442,9.112,9.921S198.573,731.438,193.541,731.438Z" transform="translate(-182.955 -710.123)" fill="#4c2910"/>
      </g>
      <g id="Group_9156" data-name="Group 9156" transform="translate(11.75 47.862)">
        <path id="Path_16569" data-name="Path 16569" d="M138.045,691.282a8.068,8.068,0,0,0-3.38-.754c-4.544,0-7.865,3.928-7.865,3.928-2.213-8.724,6.047-13.188,6.758-13.388-9,.219-15.675,8.461-13.233,16.617,2.315,7.734,6.909,9.847,11.907,9.847a22.18,22.18,0,0,0,3.115-.238C142.707,706.252,145.039,694.473,138.045,691.282Z" transform="translate(-115.4 -676.643)" fill="#a79189"/>
        <path id="Path_16570" data-name="Path 16570" d="M133.086,681.062a.152.152,0,0,0-.036.006h.049S133.094,681.062,133.086,681.062Z" transform="translate(-114.892 -676.644)" fill="#a79189"/>
        <path id="Path_16571" data-name="Path 16571" d="M140.041,687.426a12.488,12.488,0,0,0-5.213-1.152c-.326,0-.647.013-.963.036a9.168,9.168,0,0,1,1.388-.929,4.415,4.415,0,0,0-1.5-8.574c-.12,0-.241.005-.363.014a18.872,18.872,0,0,0-14.548,7.662,16.64,16.64,0,0,0-2.592,14.632c2.545,8.5,8.126,13,16.14,13a26.447,26.447,0,0,0,3.735-.28c5.44-.77,9.677-5.314,10.544-11.3C147.5,694.786,144.9,689.642,140.041,687.426Zm-7.647,20.27c-5,0-9.593-2.113-11.907-9.847-2.442-8.158,4.238-16.4,13.233-16.617a.155.155,0,0,1,.036-.006c.008,0,.012,0,.012.005h-.049c-.71.2-8.971,4.663-6.758,13.388,0,0,3.321-3.928,7.865-3.928a8.066,8.066,0,0,1,3.38.754c6.995,3.191,4.662,14.97-2.7,16.014A22.326,22.326,0,0,1,132.394,707.7Z" transform="translate(-115.563 -676.807)" fill="#4c2910"/>
      </g>
      <g id="Group_9157" data-name="Group 9157" transform="translate(192.235 40.945)">
        <path id="Path_16572" data-name="Path 16572" d="M289.377,670.284a13.493,13.493,0,0,1,2.035-.139,3.438,3.438,0,0,1,2.184.531,1.711,1.711,0,0,1,.621,1.412,1.792,1.792,0,0,1-1.192,1.663v.03a1.705,1.705,0,0,1,.9,1.263c.21.761.419,1.643.55,1.9h-1.563a8.533,8.533,0,0,1-.471-1.573c-.18-.842-.47-1.072-1.092-1.083h-.459v2.656h-1.515v-6.662Zm1.515,2.906h.6c.761,0,1.212-.381,1.212-.972,0-.622-.422-.931-1.124-.942a3.8,3.8,0,0,0-.689.05Z" transform="translate(-289.377 -670.145)" fill="#4c2910"/>
      </g>
      <g id="Group_9158" data-name="Group 9158" transform="translate(187.491 37.47)">
        <path id="Path_16573" data-name="Path 16573" d="M291.74,680.666a6.933,6.933,0,1,1,6.932-6.933A6.941,6.941,0,0,1,291.74,680.666Zm0-12.381a5.447,5.447,0,1,0,5.447,5.447A5.453,5.453,0,0,0,291.74,668.285Z" transform="translate(-284.808 -666.799)" fill="#4c2910"/>
      </g>
    </g>
    <g id="Group_9160" data-name="Group 9160" transform="translate(262.385 353.217)">
      <path id="Path_16574" data-name="Path 16574" d="M305.207,722.866a10.152,10.152,0,0,0-4.925,1.529s4.7-9.276,1.631-13.952c-1.149-1.755-3.183-2.3-5.272-2.3a21.525,21.525,0,0,0-7.12,1.518s10.2,10.037-1.1,22.952a20.519,20.519,0,0,1,7.7-1.578c4.542,0,10.008,1.793,13.209,9.207,0,0,4.484-8.018,1.047-14.128A5.693,5.693,0,0,0,305.207,722.866Z" transform="translate(-284.008 -703.722)" fill="#a79189"/>
      <path id="Path_16575" data-name="Path 16575" d="M314.4,724.11a10.2,10.2,0,0,0-7.286-5.358c.693-3.465.724-7.426-1.338-10.57-1.285-1.961-3.886-4.3-8.967-4.3a25.633,25.633,0,0,0-8.821,1.859,4.408,4.408,0,0,0-2.676,3.251,4.339,4.339,0,0,0,1.263,3.958,11.983,11.983,0,0,1,2.622,4.977c.945,3.856-.376,7.872-3.93,11.933a4.418,4.418,0,0,0,5.164,6.925,16.3,16.3,0,0,1,5.864-1.177c4.317,0,7.227,2.079,9.152,6.541a4.417,4.417,0,0,0,3.829,2.66c.075,0,.152.006.226.006a4.417,4.417,0,0,0,3.855-2.262C313.936,741.517,318.915,732.148,314.4,724.11Zm-24.711-14.287a21.529,21.529,0,0,1,7.12-1.518c2.089,0,4.122.548,5.272,2.3,3.069,4.676-1.631,13.952-1.631,13.952a10.154,10.154,0,0,1,4.925-1.528,5.69,5.69,0,0,1,5.173,3.246c3.438,6.11-1.047,14.128-1.047,14.128-3.2-7.414-8.667-9.207-13.209-9.207a20.518,20.518,0,0,0-7.7,1.578C299.882,719.86,289.685,709.823,289.685,709.823Z" transform="translate(-284.171 -703.885)" fill="#4c2910"/>
    </g>
  </g>
</svg>
